<?xml version="1.0" encoding="UTF-8"?>
<svg version="1.1" xmlns="http://www.w3.org/2000/svg" width="1198" height="1196">
<path d="M0 0 C395.34 0 790.68 0 1198 0 C1198 394.68 1198 789.36 1198 1196 C802.66 1196 407.32 1196 0 1196 C0 801.32 0 406.64 0 0 Z " fill="#FEFEFE" transform="translate(0,0)"/>
<path d="M0 0 C9.35307611 -0.04627898 18.70611299 -0.08184653 28.05927849 -0.10362434 C32.40202749 -0.114075 36.74469833 -0.12825747 41.08740234 -0.15087891 C45.27598975 -0.17256174 49.46450184 -0.18455896 53.65314102 -0.18975449 C55.2535839 -0.19345847 56.85402251 -0.20069113 58.45443344 -0.21146011 C60.69090532 -0.22591463 62.92706337 -0.22798051 65.16357422 -0.22705078 C66.43820526 -0.231492 67.7128363 -0.23593323 69.02609253 -0.24050903 C72 0 72 0 74 2 C75.00664798 4.5320054 75.84662337 7.10251913 76.70703125 9.6875 C77.76040001 12.38616076 78.90621368 14.83773179 80.2265625 17.40625 C83.71766029 24.27406763 86.61173771 31.38938257 89.5625 38.5 C90.13185835 39.86340787 90.70151829 41.22668983 91.27148438 42.58984375 C93.55272604 48.05468894 95.8231937 53.52216867 97.99609375 59.03125 C100.66743247 65.75606399 103.60398753 72.36978491 106.5 79 C110.1201155 87.28799762 113.69010838 95.58175533 117 104 C120.03964541 111.46007611 123.23807189 118.84528919 126.48364258 126.21728516 C128.38467457 130.55020727 130.18223608 134.90976722 131.90625 139.31640625 C133.36288302 142.89035941 134.93550694 146.40971349 136.5 149.9375 C138.93493313 155.43197118 141.11809161 160.94649774 143.10546875 166.62109375 C144.18750177 169.49864009 145.53141429 172.16826434 146.95654297 174.88793945 C147.99110306 176.98199171 148.86058103 179.08136166 149.70703125 181.2578125 C151.47429251 185.72676315 153.32073285 190.15894286 155.19921875 194.58203125 C155.77409875 195.9394488 156.34896841 197.29687073 156.92382812 198.65429688 C157.81033414 200.74633263 158.69826133 202.83771649 159.59008789 204.92749023 C160.4641145 206.97720287 161.33214515 209.02936947 162.19921875 211.08203125 C162.71315186 212.29093018 163.22708496 213.4998291 163.7565918 214.74536133 C164.82121961 217.53203978 165.53846349 220.06329621 166 223 C166.66 223 167.32 223 168 223 C168.54914063 221.22689453 168.54914063 221.22689453 169.109375 219.41796875 C171.17796516 213.2206761 173.78624047 207.25632051 176.39599609 201.27270508 C177.23979366 199.33592673 178.07537613 197.39575721 178.91015625 195.45507812 C182.21487151 187.81994817 185.75088854 180.35469702 189.55957031 172.95751953 C191.08273493 169.83012695 192.13881382 166.75837863 193.140625 163.44140625 C194.28617067 160.18701514 195.76441099 157.10892535 197.25 154 C199.87457503 148.4994271 202.32309005 142.95597374 204.625 137.3125 C205.06102539 136.24370605 205.06102539 136.24370605 205.50585938 135.15332031 C206.33954336 133.10313827 207.17033853 131.05181272 208 129 C208.9125131 126.74831227 209.82869142 124.49810326 210.75 122.25 C211.29914063 120.89648438 211.29914063 120.89648438 211.859375 119.515625 C213 117 213 117 214.45703125 114.6640625 C216.76811275 110.67379013 218.14031427 106.39837601 219.66210938 102.05859375 C220.88960496 98.65788039 222.19596788 95.51321129 224.03515625 92.39453125 C225.90775351 89.15936819 227.22935426 86.06965394 228.5 82.5625 C229.85195594 78.93942295 231.19801147 75.422325 233 72 C234.64615053 68.84433595 235.93715494 65.64533103 237.1875 62.3125 C239.515182 56.14160474 242.0378855 50.0665355 244.625 44 C245.00938232 43.09161377 245.39376465 42.18322754 245.78979492 41.24731445 C247.62764231 36.96060027 249.57487327 32.98905789 252 29 C252.83157074 26.95326297 253.62123389 24.88915091 254.375 22.8125 C256.26604324 17.76781365 258.3809572 12.98541041 260.88671875 8.21875 C262.06572746 5.94850756 262.06572746 5.94850756 263.08203125 3.28125 C264 1 264 1 265 0 C267.08619022 -0.09417773 269.17560477 -0.11742878 271.26391602 -0.11352539 C272.2443689 -0.11374443 272.2443689 -0.11374443 273.24462891 -0.1139679 C275.41442128 -0.11326883 277.58412879 -0.10547678 279.75390625 -0.09765625 C281.25463311 -0.09579205 282.75536057 -0.09436816 284.25608826 -0.09336853 C288.21318226 -0.08954352 292.17023978 -0.0797134 296.12731934 -0.06866455 C300.16234849 -0.05845006 304.19738353 -0.05387083 308.23242188 -0.04882812 C316.15496469 -0.03809111 324.07747781 -0.0210149 332 0 C331.32201837 2.87573167 330.46747017 5.20932886 329.0625 7.8125 C327.16795662 11.48446954 326.000752 14.996992 325 19 C324.34 19 323.68 19 323 19 C322.83757812 20.01513672 322.83757812 20.01513672 322.671875 21.05078125 C321.86795673 24.57960855 320.61049479 27.84567328 319.25 31.1875 C318.98268066 31.85096436 318.71536133 32.51442871 318.43994141 33.19799805 C316.55561925 37.80815714 314.44424747 42.24915984 312.15234375 46.671875 C310.55706173 49.89488545 309.26801254 53.21298985 307.96484375 56.5625 C306.74840976 59.63559639 305.41309942 62.64599571 304.05517578 65.65869141 C301.00666042 72.42298163 298.0454046 79.21545186 295.1875 86.0625 C292.31134373 92.93124652 289.38072205 99.77200873 286.34643555 106.57250977 C284.65604142 110.38937964 283.14395346 114.24074559 281.69897461 118.15405273 C280.79296483 120.54676665 279.76160268 122.86581414 278.6875 125.1875 C278.04554688 126.58355469 278.04554688 126.58355469 277.390625 128.0078125 C276.42428993 130.08706155 275.45535024 132.16510128 274.484375 134.2421875 C271.89370212 139.80297524 269.42160441 145.35882229 267.1953125 151.07421875 C265.22403961 155.89932788 263.05875497 160.63827315 260.92675781 165.39404297 C258.83325396 170.07945734 256.85786182 174.78763719 254.99609375 179.5703125 C253.26678029 183.78848103 251.30458102 187.89997781 249.37890625 192.03125 C247.10934316 196.91756148 245.04882103 201.86701686 243.0625 206.875 C240.88029042 212.35956477 238.49391066 217.74000872 236.03515625 223.10546875 C234.06237257 227.45510023 232.29470442 231.83683864 230.625 236.3125 C228.99137774 240.62885974 227.19249012 244.71935971 225.0625 248.8125 C222.66883462 253.44678309 220.76729324 258.10533602 219 263 C216.89423169 268.82368003 214.45612737 274.2682243 211.5859375 279.765625 C209.23129311 284.56770765 207.25631167 289.51390364 205.27172852 294.47827148 C203.09280789 299.90719211 203.09280789 299.90719211 202 301 C199.73008113 301.09439978 197.45718033 301.11742226 195.18530273 301.11352539 C194.11706772 301.11374443 194.11706772 301.11374443 193.0272522 301.1139679 C190.66266888 301.1132687 188.29816339 301.10547606 185.93359375 301.09765625 C184.29834537 301.09579209 182.66309643 301.09436818 181.02784729 301.09336853 C176.71565215 301.08954318 172.40349048 301.07971275 168.09130859 301.06866455 C163.69434054 301.0584508 159.29736711 301.05387099 154.90039062 301.04882812 C146.26691169 301.03809049 137.63346 301.02101387 129 301 C128.16260219 298.8765984 127.33019717 296.7512272 126.5 294.625 C125.80390625 292.84996094 125.80390625 292.84996094 125.09375 291.0390625 C124 288 124 288 124 286 C123.34 286 122.68 286 122 286 C121.63648438 284.99582031 121.27296875 283.99164062 120.8984375 282.95703125 C118.06798534 275.22603801 115.07254652 267.68149477 111.4921875 260.2578125 C109.94872922 256.88806328 108.58181183 253.47902696 107.21826172 250.03369141 C104.90005641 244.26094208 102.47020939 238.53469947 100.04638672 232.80566406 C99.43395464 231.35620903 98.82326616 229.906016 98.21435547 228.45507812 C94.81438758 220.35380693 91.32497783 212.37676248 87.26342773 204.57763672 C85.54808823 201.07801265 84.27633704 197.47292626 82.99609375 193.796875 C80.73561977 187.44981865 78.33009562 181.05245065 74.875 175.25 C73.13533925 172.23458803 71.9384029 169.41314252 70.7734375 166.15625 C68.69907147 160.37316894 66.3538608 154.70708208 63.78125 149.12890625 C60.54628724 142.04565845 57.46261082 134.898223 54.375 127.75 C53.79696457 126.41402374 53.21884 125.07808605 52.640625 123.7421875 C50.08370277 117.83240542 47.53460906 111.91939268 45 106 C44.57122559 104.99952637 44.14245117 103.99905273 43.70068359 102.96826172 C42.77557583 100.80967695 41.85053384 98.65106399 40.92553711 96.49243164 C39.87473647 94.04089439 38.82353387 91.58953368 37.77172852 89.13842773 C35.27542636 83.31965317 32.78423448 77.49890001 30.31640625 71.66796875 C29.91180176 70.71486816 29.50719727 69.76176758 29.09033203 68.77978516 C28.34220495 67.01641066 27.59691644 65.25182816 26.85498047 63.48583984 C25.13917239 59.44927547 23.27730396 55.75533132 21 52 C20.16619754 49.99618441 19.37682804 47.97349069 18.625 45.9375 C15.41097643 37.41793902 12.09611788 29.04575998 7.9375 20.9375 C4.50997412 14.21495568 1.79199388 7.3343128 0 0 Z " fill="#010101" transform="translate(559,457)"/>
<path d="M0 0 C24.09 0 48.18 0 73 0 C81 16 81 16 84 23 C84.92717919 25.1463548 85.85559152 27.29217728 86.78515625 29.4375 C87.04252563 30.03149597 87.29989502 30.62549194 87.56506348 31.23748779 C88.11387493 32.5040169 88.6627554 33.7705161 89.21170044 35.0369873 C90.07554009 37.03008683 90.93902975 39.02333775 91.80249023 41.01660156 C94.50720026 47.25891174 97.215613 53.49952916 99.9375 59.734375 C100.38343506 60.75660156 100.82937012 61.77882813 101.28881836 62.83203125 C102.10863483 64.71020769 102.92966447 66.58785531 103.75219727 68.46484375 C105.96674447 73.53982776 108.06952518 78.64678536 110.10913086 83.79443359 C111.15528768 86.38445297 112.304504 88.91322635 113.5 91.4375 C115.17308111 95.05827128 116.63258916 98.66896081 117.9375 102.4375 C119.7379668 107.55461617 122.07679163 112.26711489 124.5546875 117.0859375 C126.26763992 120.53961995 127.68783517 124.05410971 129.07421875 127.6484375 C129.96298825 129.90598704 130.93035877 132.10561682 131.9375 134.3125 C133.59162566 137.96966845 135.02915764 141.67898632 136.4375 145.4375 C138.28930749 150.3205739 140.35683839 154.96634405 142.7890625 159.5859375 C144.33513846 162.66811473 145.65985442 165.82310666 147 169 C147.495 170.155 147.99 171.31 148.5 172.5 C162 204 162 204 163.34765625 207.16796875 C164.7279695 210.38929838 166.14182767 213.59532887 167.55859375 216.80078125 C168.26145508 218.39116211 168.26145508 218.39116211 168.97851562 220.01367188 C169.94619796 222.20164439 170.91493716 224.3891498 171.88476562 226.57617188 C175.277898 234.26075562 178.44951128 242.00733125 181.4921875 249.8359375 C184.22745115 256.83635803 187.1894812 263.55177694 190.6328125 270.2421875 C192.26960703 273.54383589 193.60632607 276.90827622 194.921875 280.34765625 C196.6895633 284.69642564 198.77421552 288.89752199 200.828125 293.1171875 C202 296 202 296 202 300 C192.9422854 300.09268085 183.88473403 300.16375493 174.82664871 300.20724869 C170.62059023 300.22812361 166.41485615 300.256439 162.20898438 300.30175781 C158.1500403 300.34521976 154.09140826 300.36913782 150.03224945 300.37950897 C148.48366127 300.3868998 146.93509017 300.40133252 145.38663483 300.42292023 C143.21734216 300.45196048 141.04933859 300.45595599 138.87988281 300.45410156 C137.64522278 300.46298401 136.41056274 300.47186646 135.13848877 300.48101807 C131.38732929 299.90609949 130.27983943 298.97095898 128 296 C127.2394917 294.37978668 126.48973772 292.75207355 125.8359375 291.0859375 C124.87837616 288.69650874 123.78524534 286.39083884 122.6875 284.0625 C120.75238742 279.82908656 119.08095656 275.56480315 117.5 271.1875 C113.77896306 260.94432652 109.30264241 251.00842128 104.93434143 241.02981567 C101.87934421 234.05038773 98.91256911 227.0398716 96 220 C93.12748901 213.1470682 90.17978991 206.34157974 87 199.625 C84.39320701 194.04973856 82.22391722 188.38324683 80.1159668 182.60791016 C78.36955652 177.86327382 76.3211178 173.48215852 74 169 C72.91350928 166.3621016 71.94033477 163.69302976 71 161 C70.608125 159.88625 70.21625 158.7725 69.8125 157.625 C69 155 69 155 69 153 C68.34 153 67.68 153 67 153 C66.76667969 152.27941406 66.53335938 151.55882812 66.29296875 150.81640625 C62.72600312 140.31717527 58.23935159 130.26719339 53.71875 120.1484375 C51.43534597 115.02555676 49.25493265 109.86604286 47.11181641 104.68310547 C45.75127043 101.39975012 44.34841493 98.13700387 42.9375 94.875 C40.78545908 89.89045277 38.75203554 84.88156924 36.859375 79.79296875 C36.13531657 77.81212858 36.13531657 77.81212858 34 77 C33.72978027 78.01352539 33.45956055 79.02705078 33.18115234 80.07128906 C32.11080459 83.81005774 30.67581616 87.299976 29.1015625 90.859375 C28.82533051 91.48926331 28.54909851 92.11915161 28.26449585 92.76812744 C27.38887998 94.76397255 26.50755979 96.75721681 25.625 98.75 C22.12580057 106.66207872 18.72305993 114.5461611 15.84521484 122.71191406 C14.77828157 125.60021524 13.45132127 128.28666024 12 131 C9.55318163 135.73955497 7.62904788 140.4654852 5.95703125 145.52734375 C4.90700346 148.2402727 3.49692655 150.50759872 2 153 C0.97101227 155.32069573 -0.02644111 157.65551124 -1 160 C-1.56985494 161.31383222 -2.14285264 162.62630513 -2.71875 163.9375 C-3.01136719 164.60523438 -3.30398438 165.27296875 -3.60546875 165.9609375 C-4.20182292 167.3203125 -4.79817708 168.6796875 -5.39453125 170.0390625 C-8.15265577 176.33293255 -10.88462285 182.60768558 -13.25 189.0625 C-15.0970403 193.9172585 -17.19588385 198.56774423 -19.5625 203.1875 C-22.88630736 209.69153773 -25.60832428 216.23961595 -28.140625 223.08203125 C-30.58346461 229.59884705 -33.32894449 235.75694639 -36.515625 241.94140625 C-39.04423069 247.15166482 -40.98992746 252.57426073 -43 258 C-43.66119735 259.668844 -44.3259443 261.33630798 -45 263 C-45.66 263 -46.32 263 -47 263 C-47.12632812 263.7115625 -47.25265625 264.423125 -47.3828125 265.15625 C-48.01079512 268.04973954 -48.86669612 270.71739395 -49.875 273.5 C-50.20242188 274.4178125 -50.52984375 275.335625 -50.8671875 276.28125 C-52.01791914 279.04300594 -53.45957464 281.44097359 -55 284 C-55.72166191 286.31691454 -56.40059529 288.64848923 -57 291 C-57.66 291 -58.32 291 -59 291 C-59.66 293.97 -60.32 296.94 -61 300 C-83.11 300 -105.22 300 -128 300 C-128 294.41198502 -128 294.41198502 -126.1875 291.1875 C-124.74843338 288.49619296 -123.52264778 285.87584376 -122.5 283 C-121.5363994 280.32160479 -120.44613045 277.8332169 -119.125 275.3125 C-117.34953865 271.87590626 -115.97309233 268.37515853 -114.625 264.75 C-113.00380172 260.43998507 -111.23782053 256.34078018 -109.125 252.25 C-104.3397823 242.95089137 -100.63344205 233.16217213 -96.8125 223.4375 C-95.37175287 219.80484698 -93.72056134 216.33885784 -91.9375 212.86328125 C-89.84949495 208.71337121 -88.14420752 204.42495139 -86.5625 200.0625 C-85.55645217 197.32730746 -84.41170198 194.76995692 -83.0625 192.1875 C-80.9858448 188.16052603 -79.50855437 184.00075532 -78 179.734375 C-76.04885593 174.39921543 -73.68095194 169.28710233 -71.0625 164.25 C-68.78160068 159.75947947 -67.06447821 155.07786284 -65.28515625 150.37109375 C-62.65028053 143.45955046 -59.89421596 136.63879341 -56.5 130.0625 C-54.02142163 125.23701774 -52.15686658 120.25577544 -50.2578125 115.1796875 C-48.75817902 111.38868859 -46.98277066 107.80467907 -45.1171875 104.18359375 C-41.97442418 98.04091999 -39.67493341 91.5458139 -37.28125 85.0859375 C-36 82 -36 82 -34.53125 79.6015625 C-32.53819444 76.21540177 -31.30861136 72.69410081 -30 69 C-28.34720573 64.33429951 -26.60476725 60.23274679 -24 56 C-23.28821615 54.22577407 -22.6215927 52.43279877 -22 50.625 C-19.91489515 44.73162817 -17.57925858 39.10657218 -14.6875 33.5625 C-12.16281799 28.59628419 -10.23125308 23.4919665 -8.40698242 18.23657227 C-6.09613272 11.76569845 -3.15997465 6.31994929 0 0 Z " fill="#010101" transform="translate(432,461)"/>
<path d="M0 0 C0.66 0 1.32 0 2 0 C2.2475 0.99 2.495 1.98 2.75 3 C3.95884809 7.23096832 5.66576949 11.26158395 8 15 C8.66 15.33 9.32 15.66 10 16 C10.66 17.32 11.32 18.64 12 20 C35.1 20.33 58.2 20.66 82 21 C82 19.02 82 17.04 82 15 C83.09375 12.4453125 83.09375 12.4453125 84.5 10.125 C84.9640625 9.34382812 85.428125 8.56265625 85.90625 7.7578125 C86.2671875 7.17773438 86.628125 6.59765625 87 6 C87.66 6 88.32 6 89 6 C88.34422814 10.02405462 87.08843632 13.50055149 85.5 17.25 C84.83484375 18.83554687 84.83484375 18.83554687 84.15625 20.453125 C83 23 83 23 82 24 C79.73008113 24.09439978 77.45718033 24.11742226 75.18530273 24.11352539 C74.11706772 24.11374443 74.11706772 24.11374443 73.0272522 24.1139679 C70.66266888 24.1132687 68.29816339 24.10547606 65.93359375 24.09765625 C64.29834537 24.09579209 62.66309643 24.09436818 61.02784729 24.09336853 C56.71565215 24.08954318 52.40349048 24.07971275 48.09130859 24.06866455 C43.69434054 24.0584508 39.29736711 24.05387099 34.90039062 24.04882812 C26.26691169 24.03809049 17.63346 24.02101387 9 24 C8.16260219 21.8765984 7.33019717 19.7512272 6.5 17.625 C6.0359375 16.44164062 5.571875 15.25828125 5.09375 14.0390625 C4 11 4 11 4 9 C3.34 9 2.68 9 2 9 C1.34 6.03 0.68 3.06 0 0 Z " fill="#3C3C3C" transform="translate(679,734)"/>
<path d="M0 0 C0.33 0 0.66 0 1 0 C1.29296875 5.95703125 1.29296875 5.95703125 1 8 C0.00803174 9.00796775 -0.99239577 10.0076625 -2 11 C-2.62138622 13.30859383 -2.93947199 15.57630391 -3.27734375 17.94140625 C-4 20 -4 20 -6.03125 21.1484375 C-6.6809375 21.42945313 -7.330625 21.71046875 -8 22 C-8.64025105 24.18762459 -8.64025105 24.18762459 -9 27 C-9.9332369 30.02287605 -10.9645127 33.01076307 -12 36 C-12.66 36 -13.32 36 -14 36 C-13.938125 37.03125 -13.87625 38.0625 -13.8125 39.125 C-14.01362226 43.28152667 -14.76483651 45.52307902 -17 49 C-18.485 49.495 -18.485 49.495 -20 50 C-20.103125 50.639375 -20.20625 51.27875 -20.3125 51.9375 C-21.23903073 56.06477326 -22.61660629 60.00642949 -24 64 C-24.66 64 -25.32 64 -26 64 C-26.66 66.97 -27.32 69.94 -28 73 C-28.66 73 -29.32 73 -30 73 C-29.938125 73.721875 -29.87625 74.44375 -29.8125 75.1875 C-30.04239129 78.63586938 -31.09005985 80.13508978 -33 83 C-33.73743112 84.26605558 -34.466387 85.53707951 -35.1875 86.8125 C-35.785625 87.864375 -36.38375 88.91625 -37 90 C-37.66 90 -38.32 90 -39 90 C-38.72929688 89.32582031 -38.45859375 88.65164063 -38.1796875 87.95703125 C-37.32369688 85.81138589 -36.47578808 83.66251072 -35.6328125 81.51171875 C-31.11313581 70.02202827 -31.11313581 70.02202827 -28.9375 65.875 C-27.31190381 62.76257803 -26.04697299 59.60022908 -24.8125 56.3125 C-22.484818 50.14160474 -19.9621145 44.0665355 -17.375 38 C-16.99061768 37.09161377 -16.60623535 36.18322754 -16.21020508 35.24731445 C-14.37235769 30.96060027 -12.42512673 26.98905789 -10 23 C-9.16842926 20.95326297 -8.37876611 18.88915091 -7.625 16.8125 C-5.44429825 10.99287649 -2.91070234 5.48698357 0 0 Z " fill="#484848" transform="translate(821,463)"/>
<path d="M0 0 C9.35307611 -0.04627898 18.70611299 -0.08184653 28.05927849 -0.10362434 C32.40202749 -0.114075 36.74469833 -0.12825747 41.08740234 -0.15087891 C45.27598975 -0.17256174 49.46450184 -0.18455896 53.65314102 -0.18975449 C55.2535839 -0.19345847 56.85402251 -0.20069113 58.45443344 -0.21146011 C60.69090532 -0.22591463 62.92706337 -0.22798051 65.16357422 -0.22705078 C66.43820526 -0.231492 67.7128363 -0.23593323 69.02609253 -0.24050903 C72 0 72 0 74 2 C74.72115049 3.74935334 75.38063679 5.52457261 76 7.3125 C77.25695868 10.91152622 78.55967048 14.46990668 80 18 C77 17 77 17 75.5 15.0625 C73.47427943 10.92665383 72.32332257 6.41107524 71 2 C49.55 2 28.1 2 6 2 C6.74697269 8.50887149 6.74697269 8.50887149 8.125 12.6875 C8.94438485 15.78945692 9.16343388 17.0914153 8 20 C5.82335559 16.5733398 4.2263832 13.26287213 2.875 9.4375 C2.54242187 8.50808594 2.20984375 7.57867187 1.8671875 6.62109375 C1.13939396 4.42132139 0.54600648 2.2489128 0 0 Z " fill="#696969" transform="translate(559,457)"/>
<path d="M0 0 C2 2 2 2 2 5 C2.99 5.33 3.98 5.66 5 6 C6.1875 8.5625 6.1875 8.5625 7 11 C14.88432568 11.0231793 22.7686371 11.0409436 30.65298843 11.05181217 C34.31408136 11.05702876 37.97515096 11.06410421 41.63623047 11.07543945 C45.16995218 11.0863118 48.70365146 11.09228607 52.23738861 11.09487724 C54.24039958 11.09762169 56.24340154 11.10542683 58.24639893 11.11329651 C59.46736267 11.11337204 60.68832642 11.11344757 61.94628906 11.11352539 C63.55845306 11.11685631 63.55845306 11.11685631 65.20318604 11.12025452 C68.2339141 11.08363939 68.2339141 11.08363939 72 10 C72 7.03 72 4.06 72 1 C75.68548192 4.68548192 77 8.86850209 77 14 C67.9422854 14.09268085 58.88473403 14.16375493 49.82664871 14.20724869 C45.62059023 14.22812361 41.41485615 14.256439 37.20898438 14.30175781 C33.1500403 14.34521976 29.09140826 14.36913782 25.03224945 14.37950897 C23.48366127 14.3868998 21.93509017 14.40133252 20.38663483 14.42292023 C18.21734216 14.45196048 16.04933859 14.45595599 13.87988281 14.45410156 C12.64522278 14.46298401 11.41056274 14.47186646 10.13848877 14.48101807 C6.3745522 13.90414122 5.28466338 12.98513296 3 10 C0 3.89285714 0 3.89285714 0 0 Z " fill="#4A4A4A" transform="translate(557,747)"/>
<path d="M0 0 C2.52628307 2.52628307 3.55818149 5.34409108 4.8984375 8.58984375 C5.17466949 9.24900284 5.45090149 9.90816193 5.73550415 10.58729553 C6.32113096 11.98763884 6.90434982 13.3889912 7.48535156 14.79125977 C8.35960088 16.90035026 9.24159416 19.00605911 10.125 21.11132812 C12.98089823 27.94613455 15.69240001 34.79462374 18.17285156 41.77661133 C19.15681887 44.4215317 20.34535644 46.89393966 21.6875 49.375 C23.42842936 52.59814475 24.41721056 55.37517775 25 59 C18.13106796 52.47451456 18.13106796 52.47451456 17.75 48.1875 C17.87375 47.1046875 17.87375 47.1046875 18 46 C17.34 46 16.68 46 16 46 C12.29854872 37.91430546 12.29854872 37.91430546 11 33.9375 C10.16923267 31.49712096 9.24702488 29.45821184 8.0625 27.1875 C6.20094069 23.58202639 4.89601658 19.9540307 3.7109375 16.078125 C3.0552079 13.97477625 3.0552079 13.97477625 1.953125 12.0625 C0.80534377 9.57877668 0.58977815 7.4705232 0.375 4.75 C0.30023437 3.85796875 0.22546875 2.9659375 0.1484375 2.046875 C0.09945312 1.37140625 0.05046875 0.6959375 0 0 Z " fill="#323232" transform="translate(659,523)"/>
<path d="M0 0 C0.33 0 0.66 0 1 0 C1.40652968 5.42039575 0.03993514 9.07015675 -2 14 C-2.66 14 -3.32 14 -4 14 C-4.08636719 14.67804687 -4.17273438 15.35609375 -4.26171875 16.0546875 C-5.19689242 22.24914061 -6.76774083 27.21679578 -9.78125 32.7109375 C-11.07542607 35.02458274 -11.07542607 35.02458274 -12.03125 37.7265625 C-13 40 -13 40 -15 41 C-15.23952442 42.89693135 -15.23952442 42.89693135 -15.25 45.125 C-15.69244927 50.54717246 -18.15812359 53.34610531 -22 57 C-22.87467857 54.58784295 -23.16121886 53.41387528 -22.21484375 50.984375 C-21.79332031 50.24703125 -21.37179687 49.5096875 -20.9375 48.75 C-18.14559078 43.53169613 -16.11348206 38.18818769 -14.14428711 32.62207031 C-12.76211445 28.78201974 -11.1212579 25.47166081 -9 22 C-8.14602301 19.93332215 -7.33543679 17.84833332 -6.5625 15.75 C-4.55634031 10.40632009 -2.39580335 5.1797536 0 0 Z " fill="#222222" transform="translate(387,564)"/>
<path d="M0 0 C0.33 0 0.66 0 1 0 C0.91245449 1.75091019 0.80426627 3.50079551 0.6875 5.25 C0.62949219 6.22453125 0.57148438 7.1990625 0.51171875 8.203125 C-0.05467813 11.29885146 -1.02014862 12.61402526 -3 15 C-3.67863055 16.9959722 -4.34641919 18.99568551 -5 21 C-5.66 21.66 -6.32 22.32 -7 23 C-7 24.32 -7 25.64 -7 27 C13.79 27 34.58 27 56 27 C56 27.66 56 28.32 56 29 C33.89 29 11.78 29 -11 29 C-11 23.41198502 -11 23.41198502 -9.1875 20.1875 C-7.74843338 17.49619296 -6.52264778 14.87584376 -5.5 12 C-3.99620864 7.81264726 -2.0450897 3.94913873 0 0 Z " fill="#4A4A4A" transform="translate(315,732)"/>
<path d="M0 0 C1.26245617 3.78736852 0.53185982 4.55823293 -1.1875 8.0625 C-2.89130971 11.63394729 -4.51170775 15.18364803 -5.9375 18.875 C-7.95833338 24.02566069 -10.28415593 29.01766911 -12.62109375 34.03125 C-14.89065684 38.91756148 -16.95117897 43.86701686 -18.9375 48.875 C-20.53226805 52.88314327 -22.21902177 56.83515992 -23.99609375 60.765625 C-24.69051025 62.31117458 -25.36922238 63.86384103 -26.03515625 65.421875 C-27.69344385 69.28070395 -29.21307979 72.79504176 -32 76 C-31.37658609 72.4617797 -30.44678155 69.26706972 -29.15234375 65.91796875 C-28.61577148 64.52094727 -28.61577148 64.52094727 -28.06835938 63.09570312 C-27.69517578 62.13599609 -27.32199219 61.17628906 -26.9375 60.1875 C-26.37192383 58.71893555 -26.37192383 58.71893555 -25.79492188 57.22070312 C-24.86684405 54.8123999 -23.93509884 52.40558386 -23 50 C-22.34 50 -21.68 50 -21 50 C-20.67 47.36 -20.34 44.72 -20 42 C-18.515 41.505 -18.515 41.505 -17 41 C-16.67 38.69 -16.34 36.38 -16 34 C-15.34 34 -14.68 34 -14 34 C-13.9175 33.319375 -13.835 32.63875 -13.75 31.9375 C-12.95997941 28.8432527 -11.5679581 26.62174992 -9.921875 23.9140625 C-8.36746612 20.68668812 -8.24903416 17.54873681 -8 14 C-7.34 14 -6.68 14 -6 14 C-5.938125 12.989375 -5.87625 11.97875 -5.8125 10.9375 C-5.19138117 6.32616326 -2.85476316 3.58675372 0 0 Z " fill="#484848" transform="translate(821,615)"/>
<path d="M0 0 C1.18580658 0.00444122 2.37161316 0.00888245 3.59335327 0.01345825 C4.24713455 0.0131662 4.90091583 0.01287415 5.57450867 0.01257324 C7.73896483 0.01396839 9.90307822 0.02953783 12.06747437 0.04519653 C13.56677055 0.04892602 15.06606916 0.05177329 16.56536865 0.05377197 C20.5142793 0.06141355 24.46304316 0.08106644 28.41189575 0.10317993 C32.44029759 0.12362713 36.46872311 0.13277127 40.49716187 0.14285278 C48.40347928 0.16431192 56.30967732 0.19845409 64.21591187 0.24050903 C63.39765912 3.89484168 61.95156489 6.92012933 60.21591187 10.24050903 C59.21591187 7.24050903 59.21591187 7.24050903 61.21591187 2.24050903 C40.09591187 2.24050903 18.97591187 2.24050903 -2.78408813 2.24050903 C-3.11408813 3.56050903 -3.44408813 4.88050903 -3.78408813 6.24050903 C-4.40908813 4.36550903 -4.40908813 4.36550903 -4.78408813 2.24050903 C-2.78408813 0.24050903 -2.78408813 0.24050903 0 0 Z " fill="#676767" transform="translate(826.7840881347656,456.7594909667969)"/>
<path d="M0 0 C0.33 0 0.66 0 1 0 C1.58436583 7.59675581 -1.18036329 13.63393882 -5 20 C-5.79424859 22.16573796 -6.49096881 24.35424551 -7.1953125 26.55078125 C-9.63334396 33.97139156 -12.79460558 40.7112607 -16.73046875 47.45703125 C-18.11551188 49.95239855 -18.11551188 49.95239855 -18.546875 52.7421875 C-18.69640625 53.48726562 -18.8459375 54.23234375 -19 55 C-21.0625 56.3125 -21.0625 56.3125 -23 57 C-22.50958956 53.07671648 -21.06395636 50.11910664 -19.2421875 46.6484375 C-17.2734502 42.45094099 -15.74719072 38.08937264 -14.19458008 33.72338867 C-12.7943585 29.85439234 -11.14667751 26.49635009 -9 23 C-8.28821615 21.22577407 -7.6215927 19.43279877 -7 17.625 C-5.48664753 13.32754106 -3.83429231 9.16884615 -2 5 C-1.32723284 3.3357865 -0.65793165 1.67013418 0 0 Z " fill="#3F3F3F" transform="translate(417,494)"/>
<path d="M0 0 C24.09 0 48.18 0 73 0 C77 7 77 7 77 9 C76.01 9 75.02 9 74 9 C74 7.68 74 6.36 74 5 C73.34 5 72.68 5 72 5 C71.505 4.01 71.505 4.01 71 3 C67.60358358 1.74838492 64.16494448 1.84332289 60.57910156 1.79467773 C58.62753143 1.7647599 58.62753143 1.7647599 56.63653564 1.73423767 C55.2212333 1.71725582 53.80592972 1.70037693 52.390625 1.68359375 C50.93902001 1.66301245 49.48742086 1.64201567 48.03582764 1.62062073 C44.22187028 1.56552149 40.40785993 1.51605885 36.59381104 1.46777344 C32.69921166 1.41746951 28.80468891 1.36182993 24.91015625 1.30664062 C17.27350245 1.19920772 9.63678479 1.09772999 2 1 C1.85304688 1.77085937 1.70609375 2.54171875 1.5546875 3.3359375 C0.59726149 7.93427934 -0.71726507 10.71726507 -4 14 C-5.19027984 16.59915538 -5.19027984 16.59915538 -6 19 C-6.66 19 -7.32 19 -8 19 C-5.97486173 12.18368095 -3.23522676 6.47045351 0 0 Z " fill="#4D4D4D" transform="translate(432,461)"/>
<path d="M0 0 C21.45 0 42.9 0 65 0 C65 0.66 65 1.32 65 2 C43.55 2.33 22.1 2.66 0 3 C0 2.01 0 1.02 0 0 Z " fill="#191919" transform="translate(434,462)"/>
<path d="M0 0 C0.33 0 0.66 0 1 0 C1 2.64 1 5.28 1 8 C0.34 8 -0.32 8 -1 8 C-1 9.98 -1 11.96 -1 14 C-1.99 14.33 -2.98 14.66 -4 15 C-4.1546875 16.5159375 -4.1546875 16.5159375 -4.3125 18.0625 C-5.03704767 22.21218208 -6.22269266 25.21356263 -8 29 C-8.66 29 -9.32 29 -10 29 C-10.0825 30.27875 -10.165 31.5575 -10.25 32.875 C-10.74022074 36.77605236 -10.74022074 36.77605236 -12.8125 38.5625 C-15.24539483 39.04907897 -16.68054578 38.82837651 -19 38 C-19 36.02 -19 34.04 -19 32 C-17 35 -17 35 -17 37 C-16.34 37 -15.68 37 -15 37 C-14.63261719 35.81535156 -14.26523437 34.63070312 -13.88671875 33.41015625 C-11.61165971 26.58497912 -8.6760512 20.03028821 -5.8125 13.4375 C-5.24770722 12.12970392 -4.68325152 10.82176222 -4.11914062 9.51367188 C-2.74997252 6.34076099 -1.37626474 3.16984025 0 0 Z " fill="#535353" transform="translate(742,643)"/>
<path d="M0 0 C1.25300106 3.75900318 0.57873469 4.4637176 -1.125 7.9375 C-3.04533678 11.96435579 -4.86636535 15.99826741 -6.5625 20.125 C-8.32308381 24.38891392 -10.13176929 28.622559 -12.02734375 32.828125 C-12.71988255 34.37451686 -13.39806934 35.92737033 -14.06640625 37.484375 C-14.59041016 38.69867187 -14.59041016 38.69867187 -15.125 39.9375 C-15.43695312 40.66839844 -15.74890625 41.39929688 -16.0703125 42.15234375 C-17 44 -17 44 -19 46 C-18.49202991 41.6822542 -17.80317221 37.96697886 -16 34 C-15.34 34 -14.68 34 -14 34 C-13.87367188 33.27167969 -13.74734375 32.54335938 -13.6171875 31.79296875 C-13.02452299 29.1109743 -12.20011941 26.83361334 -11.125 24.3125 C-9.68621214 20.82720523 -8.47114427 17.37595848 -7.4375 13.75 C-6.33745617 9.91797918 -4.93630391 6.50378803 -3 3 C-2.34 3 -1.68 3 -1 3 C-0.67 2.01 -0.34 1.02 0 0 Z " fill="#333333" transform="translate(875,490)"/>
<path d="M0 0 C0.66 0 1.32 0 2 0 C2.2475 0.99 2.495 1.98 2.75 3 C3.95884809 7.23096832 5.66576949 11.26158395 8 15 C8.66 15.33 9.32 15.66 10 16 C10.66 17.32 11.32 18.64 12 20 C33.45 20.33 54.9 20.66 77 21 C77 21.33 77 21.66 77 22 C68.44648426 22.02315806 59.89298159 22.04093279 51.33944225 22.05181217 C47.36780376 22.0570334 43.3961867 22.0641173 39.42456055 22.07543945 C35.59258628 22.08629527 31.76063264 22.09228257 27.92864418 22.09487724 C26.46579984 22.09672662 25.00295665 22.10033792 23.54012108 22.10573006 C21.49311243 22.11297622 19.44618931 22.11398943 17.39916992 22.11352539 C16.23334885 22.115746 15.06752777 22.11796661 13.86637878 22.12025452 C11 22 11 22 8 21 C6.83203125 18.78515625 6.83203125 18.78515625 5.8125 16.0625 C5.46832031 15.16660156 5.12414062 14.27070312 4.76953125 13.34765625 C4 11 4 11 4 9 C3.34 9 2.68 9 2 9 C1.34 6.03 0.68 3.06 0 0 Z " fill="#222222" transform="translate(679,734)"/>
<path d="M0 0 C0.66 0.33 1.32 0.66 2 1 C1.23517162 3.06473432 0.46287235 5.1267021 -0.3125 7.1875 C-0.74175781 8.33605469 -1.17101562 9.48460937 -1.61328125 10.66796875 C-3 14 -3 14 -4.4921875 16.453125 C-6.39603802 19.66895541 -7.57621059 23.05422456 -8.8125 26.5625 C-11.38712473 33.6710241 -14.43432699 40.32384628 -18 47 C-19.39834838 42.62421595 -17.98248198 39.94884621 -16 36 C-15.66226563 35.36835937 -15.32453125 34.73671875 -14.9765625 34.0859375 C-12.6647375 29.72301965 -11.43253883 25.79901572 -10.4921875 20.95703125 C-9.86244175 18.4530422 -8.61047871 16.9969936 -7 15 C-5.87544465 12.36751815 -4.94660796 9.70459417 -4 7 C-3.34 7 -2.68 7 -2 7 C-1.34 4.69 -0.68 2.38 0 0 Z " fill="#3D3D3D" transform="translate(787,693)"/>
<path d="M0 0 C0.33 0 0.66 0 1 0 C1.42589023 5.53657294 -0.094753 9.89665983 -2 15 C-2.66 15 -3.32 15 -4 15 C-4.66 17.97 -5.32 20.94 -6 24 C-6.66 24 -7.32 24 -8 24 C-7.938125 24.721875 -7.87625 25.44375 -7.8125 26.1875 C-8.04239129 29.63586938 -9.09005985 31.13508978 -11 34 C-11.73743112 35.26605558 -12.466387 36.53707951 -13.1875 37.8125 C-13.785625 38.864375 -14.38375 39.91625 -15 41 C-15.66 41 -16.32 41 -17 41 C-16.72929688 40.32582031 -16.45859375 39.65164063 -16.1796875 38.95703125 C-15.32369688 36.81138589 -14.47578808 34.66251072 -13.6328125 32.51171875 C-11.30535337 26.59497141 -8.97786764 20.74911577 -6.01171875 15.1171875 C-3.67425038 10.22565137 -1.88869901 5.07781372 0 0 Z " fill="#434343" transform="translate(799,512)"/>
<path d="M0 0 C0.66 0 1.32 0 2 0 C2.66 1.98 3.32 3.96 4 6 C4.66 6 5.32 6 6 6 C6.37125 7.051875 6.7425 8.10375 7.125 9.1875 C8.56482498 13.06607159 10.28432896 16.76540606 12.0625 20.5 C15.23890833 27.30097328 16.88583008 33.57220056 18 41 C14.62895505 37.39646919 13.24599294 34.16803879 11.8359375 29.56640625 C10.58670074 25.73113264 8.979214 22.0633739 7.40625 18.3515625 C5.79057665 14.50087435 4.23367497 10.62899231 2.6875 6.75 C2.28760864 5.74718994 2.28760864 5.74718994 1.87963867 4.72412109 C1.25238355 3.14969631 0.62608371 1.57489098 0 0 Z " fill="#2D2D2D" transform="translate(539,706)"/>
<path d="M0 0 C3.32496138 1.66248069 4.01857482 5.38706027 5.375 8.6875 C7.50772053 13.87303066 9.83389607 18.33804612 13 23 C13.69730806 25.3243602 14.36912152 27.65673706 15 30 C15.66 30.66 16.32 31.32 17 32 C17.6328125 34.6015625 17.6328125 34.6015625 18.125 37.625 C18.29257812 38.62789062 18.46015625 39.63078125 18.6328125 40.6640625 C18.75398437 41.43492187 18.87515625 42.20578125 19 43 C15.42103718 38.26781583 12.8384282 33.84278839 10.80859375 28.2265625 C8.24429279 21.16544392 5.28491321 14.32162923 2.05078125 7.54296875 C1.00972978 5.02354679 0.43850362 2.68402763 0 0 Z " fill="#2F2F2F" transform="translate(619,595)"/>
<path d="M0 0 C0.33 0 0.66 0 1 0 C1.31563182 5.26053037 0.66590937 8.44573816 -2 13 C-2.66 13 -3.32 13 -4 13 C-3.938125 14.03125 -3.87625 15.0625 -3.8125 16.125 C-4.01509838 20.31203327 -4.72688402 22.50914332 -7 26 C-9.1875 27.375 -9.1875 27.375 -11 28 C-10.31047204 23.6551431 -8.84167366 19.739462 -7.1875 15.6875 C-6.92050293 15.02613037 -6.65350586 14.36476074 -6.37841797 13.68334961 C-4.46562418 9.00028291 -2.37230688 4.47088604 0 0 Z " fill="#333333" transform="translate(363,621)"/>
<path d="M0 0 C0.33 0 0.66 0 1 0 C1 1.98 1 3.96 1 6 C0.34 6 -0.32 6 -1 6 C-1.226875 7.216875 -1.45375 8.43375 -1.6875 9.6875 C-3.63693809 18.42540691 -6.78677576 26.70148607 -12 34 C-13.10401617 36.30239269 -14.05084487 38.62711217 -15 41 C-16 39 -16 39 -15 35.3125 C-13.26828711 30.370397 -11.02982485 25.68393239 -8.77514648 20.96582031 C-5.52029273 14.10679464 -2.74048012 7.07706404 0 0 Z " fill="#4B4B4B" transform="translate(766,588)"/>
<path d="M0 0 C2 2 2 2 2 5 C2.99 5.33 3.98 5.66 5 6 C5.66 7.65 6.32 9.3 7 11 C24.82 11.33 42.64 11.66 61 12 C61 12.33 61 12.66 61 13 C53.09823214 13.151988 45.19684031 13.25714825 37.29394531 13.32958984 C34.60472057 13.35640085 31.91634243 13.3981671 29.22753906 13.45263672 C25.36498703 13.52532681 21.50373557 13.55943132 17.640625 13.5859375 C15.83419525 13.63238907 15.83419525 13.63238907 13.99127197 13.67977905 C10.88030563 13.68103688 8.04679051 13.62802453 5 13 C1.11618848 9.04360034 0.43605175 5.45064693 0 0 Z " fill="#282828" transform="translate(557,747)"/>
<path d="M0 0 C0.33 0.66 0.66 1.32 1 2 C0.16476973 4.07631186 -0.76972412 6.11310046 -1.75 8.125 C-3.76926012 12.35848329 -5.63860429 16.53141325 -7.2109375 20.9453125 C-8.91765549 25.38953854 -10.99320289 29.68498961 -13 34 C-14.98568119 28.04295643 -11.8447524 20.95982556 -9.4375 15.375 C-8 13 -8 13 -6 11 C-5.71125 9.88625 -5.4225 8.7725 -5.125 7.625 C-3.97140734 3.90786811 -2.93605613 2.44671345 0 0 Z " fill="#363636" transform="translate(848,554)"/>
<path d="M0 0 C2.28918752 2.28918752 2.7417256 3.82364326 3.75 6.875 C5.24243818 11.14549725 6.98613691 15.10623272 9.0625 19.125 C11.57665982 24.00056057 13.42494563 28.74981876 15 34 C14.01 33.67 13.02 33.34 12 33 C11.67 31.02 11.34 29.04 11 27 C10.01 26.67 9.02 26.34 8 26 C6.71875 23.375 6.71875 23.375 5.5 20 C5.07332031 18.82566406 4.64664063 17.65132812 4.20703125 16.44140625 C3.80871094 15.30574219 3.41039062 14.17007813 3 13 C2.51080078 11.65228516 2.51080078 11.65228516 2.01171875 10.27734375 C0.6899593 6.52505033 0 4.06216833 0 0 Z " fill="#363636" transform="translate(546,556)"/>
<path d="M0 0 C1.27036819 3.55703094 0.72176549 5.42780041 -0.6875 8.875 C-3.25025915 15.47388158 -5.12778933 22.17838133 -7 29 C-7.66 28.67 -8.32 28.34 -9 28 C-9.268125 28.969375 -9.53625 29.93875 -9.8125 30.9375 C-10.4003125 32.4534375 -10.4003125 32.4534375 -11 34 C-12.485 34.495 -12.485 34.495 -14 35 C-12.59241937 30.26228957 -10.99244884 25.81690279 -8.6875 21.4375 C-5.11715227 14.5689347 -2.62408825 7.26809323 0 0 Z " fill="#474747" transform="translate(781,553)"/>
<path d="M0 0 C0.33 0.66 0.66 1.32 1 2 C1.66 2 2.32 2 3 2 C5.24175741 5.24587792 6.69857318 8.54093355 8 12.25 C8.33644531 13.20777344 8.67289063 14.16554688 9.01953125 15.15234375 C9.34308594 16.09207031 9.66664063 17.03179687 10 18 C10.43892578 19.23943359 10.43892578 19.23943359 10.88671875 20.50390625 C12.3269049 24.65585755 13.43837543 28.61932832 14 33 C8.73502967 25.1025445 5.28110348 16.887761 2 8 C1.62230469 7.10796875 1.24460937 6.2159375 0.85546875 5.296875 C0 3 0 3 0 0 Z " fill="#393939" transform="translate(573,488)"/>
<path d="M0 0 C0.66 0 1.32 0 2 0 C1.125 4.875 1.125 4.875 0 6 C-1.93306498 6.09396057 -3.86958838 6.11743517 -5.80493164 6.11352539 C-7.66674828 6.11341209 -7.66674828 6.11341209 -9.56617737 6.11329651 C-10.9308374 6.10818911 -12.29549702 6.1029731 -13.66015625 6.09765625 C-15.04878183 6.095792 -16.43740807 6.09436813 -17.82603455 6.09336853 C-21.48721115 6.08954387 -25.1483483 6.07971403 -28.80950928 6.06866455 C-32.54292263 6.05844932 -36.27634234 6.05387067 -40.00976562 6.04882812 C-47.33986177 6.03809171 -54.66992536 6.02101591 -62 6 C-62 5.67 -62 5.34 -62 5 C-60.90125801 4.99453156 -60.90125801 4.99453156 -59.78031921 4.98895264 C-52.87913496 4.95109486 -45.97833994 4.89426768 -39.07750225 4.81609726 C-35.52959524 4.77657782 -31.98193805 4.7444118 -28.43383789 4.72900391 C-24.35522462 4.71097082 -20.27754562 4.66104061 -16.19921875 4.609375 C-14.28661507 4.60753204 -14.28661507 4.60753204 -12.33537292 4.60565186 C-11.15437515 4.58593323 -9.97337738 4.5662146 -8.7565918 4.54589844 C-7.71512497 4.53701599 -6.67365814 4.52813354 -5.60063171 4.51898193 C-2.84985313 4.24909499 -2.84985313 4.24909499 -1.26521301 1.96588135 C-0.84769272 1.3171405 -0.43017242 0.66839966 0 0 Z " fill="#1E1E1E" transform="translate(370,754)"/>
<path d="M0 0 C0.66 0 1.32 0 2 0 C5 5.625 5 5.625 5 9 C5.66 9 6.32 9 7 9 C7 9.99 7 10.98 7 12 C7.66 12 8.32 12 9 12 C9.24234375 12.90621094 9.4846875 13.81242188 9.734375 14.74609375 C11.4917048 21.13331168 13.38777862 27.163474 16.25 33.15625 C17.20462727 35.50304204 17.3229916 37.4968151 17 40 C13.65756164 34.98634246 10 27.05322992 10 21 C9.34 21 8.68 21 8 21 C7.67386719 20.07058594 7.34773438 19.14117188 7.01171875 18.18359375 C3.76368301 8.99066346 3.76368301 8.99066346 0 0 Z " fill="#2D2D2D" transform="translate(491,593)"/>
<path d="M0 0 C0.66 0 1.32 0 2 0 C0.90552256 4.12533806 -0.34047964 7.94412184 -2.08203125 11.8515625 C-3.301226 14.70499702 -4.39524353 17.60042896 -5.5 20.5 C-7.23669517 25.04898705 -9.03220756 29.546575 -11 34 C-11.33 34 -11.66 34 -12 34 C-11.35839688 28.86717502 -10.45687503 23.97051481 -9 19 C-8.34 18.67 -7.68 18.34 -7 18 C-6.59270772 15.67843403 -6.25561323 13.3431213 -6 11 C-5.34 11 -4.68 11 -4 11 C-3.87625 9.865625 -3.7525 8.73125 -3.625 7.5625 C-3.41875 6.386875 -3.2125 5.21125 -3 4 C-2.34 3.67 -1.68 3.34 -1 3 C-0.67 2.01 -0.34 1.02 0 0 Z " fill="#404040" transform="translate(401,683)"/>
<path d="M0 0 C0.33 0 0.66 0 1 0 C0.91245449 1.75091019 0.80426627 3.50079551 0.6875 5.25 C0.62949219 6.22453125 0.57148438 7.1990625 0.51171875 8.203125 C-0.05455316 11.29816844 -1.02390516 12.6124304 -3 15 C-3.33 16.03125 -3.66 17.0625 -4 18.125 C-5 21 -5 21 -8 23 C-8.71555057 17.56181564 -6.79109665 14.13487893 -4.3125 9.48046875 C-2.67593841 6.38756217 -1.33507968 3.23229818 0 0 Z " fill="#212121" transform="translate(315,732)"/>
<path d="M0 0 C6.93 0 13.86 0 21 0 C21 0.33 21 0.66 21 1 C14.73 1 8.46 1 2 1 C1.67 2.65 1.34 4.3 1 6 C-0.17934129 9.53802388 -1.40686335 11.40686335 -4 14 C-5.19027984 16.59915538 -5.19027984 16.59915538 -6 19 C-6.66 19 -7.32 19 -8 19 C-5.99712886 12.25862885 -3.24984652 6.23619197 0 0 Z " fill="#555555" transform="translate(432,461)"/>
<path d="M0 0 C0.33 0.66 0.66 1.32 1 2 C1.99 2.33 2.98 2.66 4 3 C4.33 5.31 4.66 7.62 5 10 C5.66 10 6.32 10 7 10 C8.45184478 14.53701494 9.23509196 18.18061476 9 23 C9.66 23 10.32 23 11 23 C14.125 29.625 14.125 29.625 13 33 C9.48709381 26.29034917 6.34934676 19.64371256 3.87890625 12.48046875 C3.09349896 10.26387485 2.21570359 8.14251448 1.25 6 C0 3 0 3 0 0 Z " fill="#2C2C2C" transform="translate(638,638)"/>
<path d="M0 0 C4.58900807 4.15195968 6.54516646 9.16698176 8.5 14.9375 C9.70652329 18.49132982 10.90918449 21.82166736 12.61328125 25.16796875 C14.44150873 28.90167275 14.64556464 31.88854981 15 36 C12.94827709 32.92241563 11.62615351 29.96743985 10.1875 26.5625 C9.79546387 25.63522095 9.79546387 25.63522095 9.39550781 24.68920898 C8.85722705 23.41446228 8.32028565 22.1391492 7.78466797 20.86328125 C7.0524518 19.12455263 6.30982494 17.39021839 5.56640625 15.65625 C3.36809371 10.48988938 1.36259799 5.45039198 0 0 Z " fill="#393939" transform="translate(524,669)"/>
<path d="M0 0 C1.14920821 3.86036843 0.49408105 5.26479737 -1 9 C-1.10426644 10.4569863 -1.18558307 11.91570873 -1.25 13.375 C-1.69987143 18.64114203 -4.27173143 21.45415435 -8 25 C-8.93536754 22.48081995 -9.13749192 21.35220532 -8.14453125 18.80859375 C-7.70496094 18.02613281 -7.26539063 17.24367188 -6.8125 16.4375 C-3.97908851 11.1268321 -1.9363745 5.69012842 0 0 Z " fill="#4B4B4B" transform="translate(373,596)"/>
<path d="M0 0 C0 0.66 0 1.32 0 2 C-0.66 2 -1.32 2 -2 2 C-1.938125 3.03125 -1.87625 4.0625 -1.8125 5.125 C-2.01362226 9.28152667 -2.76483651 11.52307902 -5 15 C-5.99 15.33 -6.98 15.66 -8 16 C-8.33 16.99 -8.66 17.98 -9 19 C-8.57815943 12.35601103 -7.42584281 6.7916135 -4 1 C-2 0 -2 0 0 0 Z " fill="#404040" transform="translate(809,497)"/>
<path d="M0 0 C3.73257065 3.73257065 5.18548802 9.17962163 7.1875 14 C7.90196289 15.67835938 7.90196289 15.67835938 8.63085938 17.390625 C9.29891602 18.99164063 9.29891602 18.99164063 9.98046875 20.625 C10.39192139 21.60726563 10.80337402 22.58953125 11.22729492 23.6015625 C12 26 12 26 11 28 C10.60167969 27.16855469 10.20335937 26.33710938 9.79296875 25.48046875 C9.26316406 24.39378906 8.73335937 23.30710937 8.1875 22.1875 C7.66542969 21.10855469 7.14335938 20.02960938 6.60546875 18.91796875 C5.21064303 16.05663273 5.21064303 16.05663273 3.375 14.390625 C1.5656698 12.56073423 1.30651079 11.06633246 0.8125 8.5625 C0.65394531 7.80066406 0.49539063 7.03882813 0.33203125 6.25390625 C0 4 0 4 0 0 Z " fill="#5A5A5A" transform="translate(515,484)"/>
<path d="M0 0 C2.13834531 2.13834531 2.739378 3.52238279 3.8125 6.3125 C4.15410156 7.19550781 4.49570312 8.07851563 4.84765625 8.98828125 C5.22792969 9.98214844 5.60820313 10.97601562 6 12 C6.45246094 13.14855469 6.90492188 14.29710937 7.37109375 15.48046875 C11 24.74291785 11 24.74291785 11 27 C10.34 27 9.68 27 9 27 C5 17.28571429 5 17.28571429 5 14 C4.34 14 3.68 14 3 14 C0.56574762 9.03006806 -0.34615998 5.65394631 0 0 Z " fill="#484848" transform="translate(606,695)"/>
<path d="M0 0 C2.50004376 3.05077804 3.97966146 6.03095417 5.4375 9.6875 C7.28688754 14.2661352 9.22483431 18.77770567 11.30078125 23.2578125 C12 25 12 25 12 27 C9 26 9 26 7.9375 24.109375 C7.628125 23.33078125 7.31875 22.5521875 7 21.75 C5.91572897 19.1220912 4.90224821 16.84585295 3.375 14.4375 C0.79194 9.85843908 0 5.21624934 0 0 Z " fill="#4E4E4E" transform="translate(693,604)"/>
<path d="M0 0 C2.09989037 2.09989037 2.80708074 3.57208894 3.9453125 6.28125 C4.29980469 7.12300781 4.65429688 7.96476563 5.01953125 8.83203125 C5.38433594 9.71246094 5.74914062 10.59289062 6.125 11.5 C6.49753906 12.38042969 6.87007812 13.26085937 7.25390625 14.16796875 C10 20.73646406 10 20.73646406 10 23 C6.04431133 21.68143711 5.73254403 20.2262489 3.875 16.5625 C1.18291127 10.99840571 0.02724881 6.1582319 0 0 Z " fill="#555555" transform="translate(659,523)"/>
<path d="M0 0 C1.68925444 5.03305262 -0.06465598 9.24227928 -2 14 C-3.52946847 16.46673421 -5.23974019 18.68386867 -7 21 C-7.66229354 23.11472249 -7.66229354 23.11472249 -8 25 C-8.66 25 -9.32 25 -10 25 C-10 25.99 -10 26.98 -10 28 C-10.66 28 -11.32 28 -12 28 C-9.94490404 20.98849615 -6.96401701 14.70454905 -3.62109375 8.234375 C-2.26135461 5.52144968 -1.07149734 2.83600292 0 0 Z " fill="#4C4C4C" transform="translate(328,702)"/>
<path d="M0 0 C0.66 0 1.32 0 2 0 C7.42871238 9.51060681 7.42871238 9.51060681 9 14 C9.2578125 14.70125 9.515625 15.4025 9.78125 16.125 C11.22102472 20.1776992 12.42261874 23.63293968 12 28 C9.71934925 25.71934925 9.22035494 24.1576379 8.1875 21.125 C6.3322522 15.83824125 4.24190144 10.68682691 2.05078125 5.53125 C1.2968637 3.71512148 0.62182911 1.86548734 0 0 Z " fill="#454545" transform="translate(508,633)"/>
<path d="M0 0 C1.32 0.33 2.64 0.66 4 1 C3.34 1 2.68 1 2 1 C1.74476563 1.98097656 1.48953125 2.96195313 1.2265625 3.97265625 C-0.01081571 8.30347999 -1.77907416 12.33669321 -3.625 16.4375 C-3.94984375 17.16904297 -4.2746875 17.90058594 -4.609375 18.65429688 C-5.4021445 20.43802825 -6.20049243 22.21927859 -7 24 C-8.07735006 20.76794982 -7.92640423 19.66422565 -7.1875 16.4375 C-6.93033203 15.25994141 -6.93033203 15.25994141 -6.66796875 14.05859375 C-6 12 -6 12 -4 10 C-3.28591666 8.01643517 -2.61382258 6.01684563 -2 4 C-1.34 4 -0.68 4 0 4 C0 2.68 0 1.36 0 0 Z " fill="#2E2E2E" transform="translate(464,537)"/>
<path d="M0 0 C1.90234375 0.21484375 1.90234375 0.21484375 4 1 C4.94140625 3.00390625 4.94140625 3.00390625 5.5625 5.5625 C6.45084166 8.96455568 7.40194961 12.22605157 8.6875 15.5 C10 19 10 19 10 21 C10.66 21 11.32 21 12 21 C12 22.98 12 24.96 12 27 C9.92693344 24.92693344 9.23993915 23.53039142 8.125 20.859375 C7.77953125 20.03566406 7.4340625 19.21195313 7.078125 18.36328125 C6.72234375 17.50089844 6.3665625 16.63851562 6 15.75 C5.64421875 14.90308594 5.2884375 14.05617188 4.921875 13.18359375 C3.10936355 8.83491888 1.41157853 4.49940656 0 0 Z " fill="#3A3A3A" transform="translate(479,564)"/>
<path d="M0 0 C1.32 0.33 2.64 0.66 4 1 C4.99 4.63 5.98 8.26 7 12 C7.66 12 8.32 12 9 12 C9.33 15.3 9.66 18.6 10 22 C5.06831037 15.42441383 1.94847731 7.97104352 0 0 Z " fill="#3C3C3C" transform="translate(468,538)"/>
<path d="M0 0 C3.25414642 3.75632951 4.89627092 8.07840521 6.75 12.625 C7.07871094 13.40101563 7.40742187 14.17703125 7.74609375 14.9765625 C8.05160156 15.7190625 8.35710938 16.4615625 8.671875 17.2265625 C8.9512793 17.90283691 9.23068359 18.57911133 9.51855469 19.27587891 C10 21 10 21 9 23 C3.75939789 15.37730603 0 9.4531676 0 0 Z " fill="#5B5B5B" transform="translate(527,512)"/>
<path d="M0 0 C3.3 0 6.6 0 10 0 C12.92678249 5.55079437 15.1668733 11.00067626 17 17 C14 16 14 16 12.5 14.0625 C10.44221761 9.86119428 9.23268147 5.50234722 8 1 C5.36 1 2.72 1 0 1 C0 0.67 0 0.34 0 0 Z " fill="#4B4B4B" transform="translate(622,458)"/>
<path d="M0 0 C1.17635584 2.84909304 1.05626279 3.86385557 -0.14453125 6.76953125 C-0.97017578 8.27580078 -0.97017578 8.27580078 -1.8125 9.8125 C-4.13141217 14.20821054 -5.90099268 18.16436781 -7 23 C-7.33 23 -7.66 23 -8 23 C-7.61182186 16.46789888 -6.71956543 10.98304396 -4 5 C-3.34 4.67 -2.68 4.34 -2 4 C-0.86649466 1.98330173 -0.86649466 1.98330173 0 0 Z " fill="#505050" transform="translate(382,729)"/>
<path d="M0 0 C2.32601226 2.32601226 2.83016094 4.02502294 3.875 7.125 C5.14136901 10.7616295 6.50855873 14.16060383 8.3125 17.5625 C8.869375 18.696875 9.42625 19.83125 10 21 C9.67 21.66 9.34 22.32 9 23 C4.81922065 19.82837428 3.96448978 16.25617509 2.66015625 11.40234375 C2.02114825 8.88388291 2.02114825 8.88388291 0.8125 6.125 C0 4 0 4 0 0 Z " fill="#575757" transform="translate(590,658)"/>
<path d="M0 0 C0.66 0 1.32 0 2 0 C0.44554621 5.0602432 -1.15946576 9.50248746 -4 14 C-4.53746069 15.22198775 -5.05753439 16.45172988 -5.5625 17.6875 C-7 21 -7 21 -9 23 C-8.49202991 18.6822542 -7.80317221 14.96697886 -6 11 C-5.34 11 -4.68 11 -4 11 C-3.896875 10.29875 -3.79375 9.5975 -3.6875 8.875 C-2.90640997 5.60862353 -1.57941257 2.9528148 0 0 Z " fill="#383838" transform="translate(865,513)"/>
<path d="M0 0 C0.33 0 0.66 0 1 0 C1.54463719 7.08028353 -0.76555008 14.29269793 -5 20 C-5.66 20 -6.32 20 -7 20 C-7.33 20.99 -7.66 21.98 -8 23 C-7.32510673 18.93547423 -6.07017831 15.32959238 -4.5625 11.5 C-4.13066406 10.3965625 -3.69882812 9.293125 -3.25390625 8.15625 C-2.17317865 5.43591386 -1.08973667 2.71673885 0 0 Z " fill="#505050" transform="translate(417,494)"/>
<path d="M0 0 C0.33 1.32 0.66 2.64 1 4 C0.34 4 -0.32 4 -1 4 C-1.0825 5.27875 -1.165 6.5575 -1.25 7.875 C-1.74022074 11.77605236 -1.74022074 11.77605236 -3.8125 13.5625 C-6.24539483 14.04907897 -7.68054578 13.82837651 -10 13 C-10 11.02 -10 9.04 -10 7 C-8 10 -8 10 -8 12 C-7.34 12 -6.68 12 -6 12 C-5.72736328 11.07767578 -5.72736328 11.07767578 -5.44921875 10.13671875 C-5.19785156 9.32847656 -4.94648437 8.52023437 -4.6875 7.6875 C-4.44386719 6.88699219 -4.20023438 6.08648438 -3.94921875 5.26171875 C-2.95817977 2.90035427 -1.91925057 1.66120007 0 0 Z " fill="#404040" transform="translate(733,668)"/>
<path d="M0 0 C0.99 0 1.98 0 3 0 C1.00386732 6.7186905 -1.7291421 12.80734808 -5 19 C-6.29362893 15.11911321 -5.41911705 13.36457929 -4.1875 9.5 C-3.83042969 8.3553125 -3.47335937 7.210625 -3.10546875 6.03125 C-2 3 -2 3 0 0 Z " fill="#434343" transform="translate(440,593)"/>
<path d="M0 0 C0.66 0 1.32 0 2 0 C1.34496718 4.05819183 0.05440879 7.53971282 -1.5625 11.3125 C-2.01753906 12.38113281 -2.47257813 13.44976563 -2.94140625 14.55078125 C-3.46541016 15.76314453 -3.46541016 15.76314453 -4 17 C-4.33 17 -4.66 17 -5 17 C-5.64317031 9.92512658 -3.82735898 5.90506815 0 0 Z " fill="#333333" transform="translate(766,740)"/>
<path d="M0 0 C3.7165674 3.7165674 4 6.77645906 4 12 C-0.95 12 -5.9 12 -11 12 C-11 11.67 -11 11.34 -11 11 C-5.555 10.01 -5.555 10.01 0 9 C0 6.03 0 3.06 0 0 Z " fill="#3B3B3B" transform="translate(629,748)"/>
<path d="M0 0 C1.40144398 3.89289993 1.00974068 7.02835332 0 11 C-1.78845761 13.55352003 -3.80457892 15.79115126 -6 18 C-7 16 -7 16 -6.328125 13.57421875 C-5.97234375 12.62160156 -5.6165625 11.66898438 -5.25 10.6875 C-4.90453125 9.74261719 -4.5590625 8.79773438 -4.203125 7.82421875 C-3.01569299 5.03683776 -1.6201708 2.5559591 0 0 Z " fill="#484848" transform="translate(339,677)"/>
<path d="M0 0 C0.33 0.66 0.66 1.32 1 2 C0.67 2.99 0.34 3.98 0 5 C-0.66 5 -1.32 5 -2 5 C-2.0825 5.639375 -2.165 6.27875 -2.25 6.9375 C-3.29520372 11.20541517 -5.14091826 15.03107667 -7 19 C-7.33 19 -7.66 19 -8 19 C-7.44854729 13.76119922 -6.57077907 9.02649303 -5 4 C-4.360625 3.896875 -3.72125 3.79375 -3.0625 3.6875 C-2.381875 3.460625 -1.70125 3.23375 -1 3 C-0.67 2.01 -0.34 1.02 0 0 Z " fill="#434343" transform="translate(884,471)"/>
<path d="M0 0 C1.17719456 3.44349429 0.83086208 5.66153505 -0.1875 9.125 C-0.42855469 9.99382813 -0.66960937 10.86265625 -0.91796875 11.7578125 C-2.20852216 14.43210006 -3.26387795 14.99165688 -6 16 C-5.12689787 10.23752594 -2.6706066 5.13578192 0 0 Z " fill="#3F3F3F" transform="translate(346,661)"/>
<path d="M0 0 C2.18668879 2.18668879 2.78976264 3.69693524 3.875 6.5625 C5.50722159 10.81859478 7.33719295 14.9098832 9.36328125 18.9921875 C10.12196001 21.38458555 9.81274275 22.66139829 9 25 C8.67 23.35 8.34 21.7 8 20 C7.34 20 6.68 20 6 20 C2.57142857 12.71428571 2.57142857 12.71428571 3 8 C2.34 8 1.68 8 1 8 C0.67 5.36 0.34 2.72 0 0 Z " fill="#636363" transform="translate(566,602)"/>
<path d="M0 0 C1.31977666 3.95932998 0.29824534 5.42387647 -1.25 9.25 C-1.71277344 10.40371094 -2.17554688 11.55742188 -2.65234375 12.74609375 C-4.07363216 16.17778432 -5.49878757 19.60251923 -7 23 C-7.33 23 -7.66 23 -8 23 C-7.45018084 16.95198929 -6.09570426 11.69398894 -4 6 C-3.34 6 -2.68 6 -2 6 C-1.34 4.02 -0.68 2.04 0 0 Z " fill="#4C4C4C" transform="translate(451,570)"/>
<path d="M0 0 C0.66 0 1.32 0 2 0 C2.67354499 1.43429001 3.33859701 2.87257057 4 4.3125 C4.556875 5.51326172 4.556875 5.51326172 5.125 6.73828125 C6 9 6 9 6 12 C6.99 12.33 7.98 12.66 9 13 C10.4783226 15.95664519 10.06032783 18.74229737 10 22 C7.82052083 19.82052083 7.17146809 18.27567673 6.0546875 15.4296875 C5.70019531 14.53378906 5.34570312 13.63789062 4.98046875 12.71484375 C4.61566406 11.77769531 4.25085938 10.84054687 3.875 9.875 C3.50246094 8.93011719 3.12992188 7.98523438 2.74609375 7.01171875 C1.82606664 4.67626533 0.91091917 2.33901761 0 0 Z " fill="#313131" transform="translate(593,536)"/>
<path d="M0 0 C1.36420006 4.09260018 -0.2335485 6.47012659 -1.9375 10.1875 C-2.22818359 10.84169922 -2.51886719 11.49589844 -2.81835938 12.16992188 C-3.53695343 13.78381344 -4.2673588 15.39243655 -5 17 C-5.33 17 -5.66 17 -6 17 C-6 14.36 -6 11.72 -6 9 C-5.34 9 -4.68 9 -4 9 C-4 7.35 -4 5.7 -4 4 C-2.68 3.34 -1.36 2.68 0 2 C0 1.34 0 0.68 0 0 Z " fill="#313131" transform="translate(855,536)"/>
<path d="M0 0 C0.66 0 1.32 0 2 0 C1.72027344 0.68835938 1.44054687 1.37671875 1.15234375 2.0859375 C0.34701559 4.12246227 -0.42939244 6.17055497 -1.18359375 8.2265625 C-1.80427734 9.90878906 -1.80427734 9.90878906 -2.4375 11.625 C-2.84871094 12.75164063 -3.25992187 13.87828125 -3.68359375 15.0390625 C-4.8754868 17.71993767 -5.76824551 19.16514645 -8 21 C-6.96232949 14.93267948 -5.66038099 9.5626148 -3 4 C-2.34 4 -1.68 4 -1 4 C-0.67 2.68 -0.34 1.36 0 0 Z " fill="#3E3E3E" transform="translate(411,662)"/>
<path d="M0 0 C4.70951912 4.70951912 6.34687089 12.6630051 8 19 C4.14845935 15.55388468 2.3585525 12.98135916 1 8 C0.67 7.67 0.34 7.34 0 7 C-0.04092937 4.66702567 -0.04241723 2.33294775 0 0 Z " fill="#535353" transform="translate(705,632)"/>
<path d="M0 0 C0.66 0 1.32 0 2 0 C2 1.32 2 2.64 2 4 C2.66 4 3.32 4 4 4 C5.01085436 6.39175361 6.00879203 8.78761585 7 11.1875 C7.28617187 11.86103516 7.57234375 12.53457031 7.8671875 13.22851562 C9.39206299 16.94993794 10.37610432 19.96471408 10 24 C6.65756164 18.98634246 3 11.05322992 3 5 C2.34 5 1.68 5 1 5 C0.67 3.35 0.34 1.7 0 0 Z " fill="#4F4F4F" transform="translate(498,609)"/>
<path d="M0 0 C3.32609033 1.66304517 4.13801727 5.28765826 5.5625 8.5625 C5.87896484 9.25408203 6.19542969 9.94566406 6.52148438 10.65820312 C8.63976074 15.48391552 9.56861305 19.74653427 10 25 C5.09505691 17.64258536 2.69936502 8.38223875 0 0 Z " fill="#424242" transform="translate(619,595)"/>
<path d="M0 0 C2.35243131 2.35243131 2.91585023 4.18286453 4 7.3125 C5.25695868 10.91152622 6.55967048 14.46990668 8 18 C5 17 5 17 3.4375 14.9375 C1.03347304 10.02492317 0 5.46386595 0 0 Z " fill="#545454" transform="translate(546,556)"/>
<path d="M0 0 C0.99 0 1.98 0 3 0 C3.12375 1.010625 3.2475 2.02125 3.375 3.0625 C3.90683527 6.99905755 3.90683527 6.99905755 5.125 10.6875 C5.94438485 13.78945692 6.16343388 15.0914153 5 18 C2.31211302 14.08967675 1.42764016 10.8720289 0.8125 6.1875 C0.65394531 5.02605469 0.49539063 3.86460937 0.33203125 2.66796875 C0.22246094 1.78753906 0.11289062 0.90710938 0 0 Z " fill="#303030" transform="translate(562,459)"/>
<path d="M0 0 C5.9317391 4.44880432 7.56126407 10.91842964 9 18 C8.67 18.99 8.34 19.98 8 21 C6.65757579 18.06657102 5.32765933 15.12763748 4 12.1875 C3.6184375 11.35412109 3.236875 10.52074219 2.84375 9.66210938 C2.4828125 8.85966797 2.121875 8.05722656 1.75 7.23046875 C1.41484375 6.49207764 1.0796875 5.75368652 0.734375 4.99291992 C0 3 0 3 0 0 Z " fill="#323232" transform="translate(655,678)"/>
<path d="M0 0 C0.33 0.66 0.66 1.32 1 2 C0.07227356 4.39255767 -0.92090467 6.67646409 -2 9 C-2.73110016 10.64497536 -3.46025762 12.29081548 -4.1875 13.9375 C-4.79120246 15.29187368 -5.39520315 16.64611467 -6 18 C-7.09898702 14.70303895 -6.87124444 13.59505097 -6.0625 10.3125 C-5.86785156 9.50425781 -5.67320312 8.69601562 -5.47265625 7.86328125 C-5.31667969 7.24839844 -5.16070312 6.63351562 -5 6 C-4.01 6 -3.02 6 -2 6 C-1.34 4.02 -0.68 2.04 0 0 Z " fill="#353535" transform="translate(433,612)"/>
<path d="M0 0 C0.33 0 0.66 0 1 0 C1.36948915 7.51294612 1.36948915 7.51294612 -0.375 9.8125 C-0.91125 10.204375 -1.4475 10.59625 -2 11 C-2.99 12.485 -2.99 12.485 -4 14 C-4.66 14 -5.32 14 -6 14 C-2.99633316 4.22210581 -2.99633316 4.22210581 0 0 Z " fill="#525252" transform="translate(821,463)"/>
<path d="M0 0 C5.11590964 5.11590964 6.8346709 14.20874056 9 21 C5.81554 18.07422162 4.51925359 15.05134291 3 11 C3 10.01 3 9.02 3 8 C2.34 8 1.68 8 1 8 C0.67 5.36 0.34 2.72 0 0 Z " fill="#656565" transform="translate(537,535)"/>
<path d="M0 0 C0.66 0 1.32 0 2 0 C0.44071133 6.86087016 -2.75757474 12.79044974 -6 19 C-7.401099 14.61560856 -5.96727977 11.95835728 -4 8 C-3.6390625 7.26394531 -3.278125 6.52789063 -2.90625 5.76953125 C-1.95006088 3.84007821 -0.9764701 1.91926882 0 0 Z " fill="#515151" transform="translate(775,721)"/>
<path d="M0 0 C2.24956302 2.24956302 3.00510965 4.06323263 4.1875 7 C4.55230469 7.886875 4.91710937 8.77375 5.29296875 9.6875 C6 12 6 12 5 14 C2 13 2 13 0.8203125 11.234375 C-0.09442005 8.74281777 -0.20275975 6.89383164 -0.125 4.25 C-0.10695313 3.45078125 -0.08890625 2.6515625 -0.0703125 1.828125 C-0.04710937 1.22484375 -0.02390625 0.6215625 0 0 Z " fill="#4D4D4D" transform="translate(509,470)"/>
<path d="M0 0 C4.20573135 3.40463967 5.96456238 8.82281188 7 14 C3.36713045 12.78904348 2.56993248 11.20640617 0.78515625 7.921875 C-0.31643358 5.22544616 -0.27986167 2.86858211 0 0 Z " fill="#4B4B4B" transform="translate(617,722)"/>
<path d="M0 0 C1.68178661 2.52267991 2.90106742 4.81091823 4.125 7.5625 C4.47820313 8.34753906 4.83140625 9.13257813 5.1953125 9.94140625 C6 12 6 12 6 14 C4.68 14 3.36 14 2 14 C0.4087311 9.126739 -0.21192221 5.19209404 0 0 Z " fill="#545454" transform="translate(717,660)"/>
<path d="M0 0 C1.26070809 2.9798555 0.99119908 4.02316031 -0.1875 7.125 C-1.99400788 9.99049526 -2.86809018 10.9200311 -6 12 C-5.125 7.25 -5.125 7.25 -4 5 C-3.34 5 -2.68 5 -2 5 C-2 4.01 -2 3.02 -2 2 C-1.34 2 -0.68 2 0 2 C0 1.34 0 0.68 0 0 Z " fill="#2D2D2D" transform="translate(358,637)"/>
<path d="M0 0 C2.73034935 2.73034935 3.78663731 5.97312216 5.1875 9.5 C5.61579102 10.53447266 5.61579102 10.53447266 6.05273438 11.58984375 C6.76545405 13.36904176 7.3895311 15.18317788 8 17 C7.67 17.66 7.34 18.32 7 19 C4.52748562 15.99614299 3.12314723 13.15575167 1.8125 9.5 C1.46832031 8.5615625 1.12414062 7.623125 0.76953125 6.65625 C0 4 0 4 0 0 Z " fill="#656565" transform="translate(645,490)"/>
<path d="M0 0 C3.42931954 3.7559214 4.56429083 8.23466745 6 13 C4.68 13 3.36 13 2 13 C0.24252386 8.49646738 -0.19294408 4.82360189 0 0 Z " fill="#515151" transform="translate(639,476)"/>
<path d="M0 0 C0.99 0.495 0.99 0.495 2 1 C2 1.66 2 2.32 2 3 C2.99 3.33 3.98 3.66 5 4 C5.66 7.96 6.32 11.92 7 16 C4.53859635 13.53859635 3.69673014 11.21543707 2.375 8 C1.92898438 6.9275 1.48296875 5.855 1.0234375 4.75 C0 2 0 2 0 0 Z " fill="#2E2E2E" transform="translate(609,572)"/>
<path d="M0 0 C5.97976619 5.82643885 5.97976619 5.82643885 6.0625 10.625 C6.041875 11.73875 6.02125 12.8525 6 14 C1.86217076 9.72424312 0.94055703 5.68046944 0 0 Z " fill="#3B3B3B" transform="translate(603,558)"/>
<path d="M0 0 C1.45489101 4.47208109 -0.03886361 6.7871885 -2 11 C-2.33 12.11375 -2.66 13.2275 -3 14.375 C-3.33 15.24125 -3.66 16.1075 -4 17 C-4.99 17.33 -5.98 17.66 -7 18 C-5.06375702 11.79522136 -2.74390859 5.89174281 0 0 Z " fill="#676767" transform="translate(314,733)"/>
<path d="M0 0 C0.33 0.66 0.66 1.32 1 2 C0.328125 3.69921875 0.328125 3.69921875 -0.75 5.6875 C-2.17299665 8.38137986 -3.47716031 11.05273437 -4.625 13.875 C-6 17 -6 17 -8 19 C-7.34309381 15.21760329 -6.279869 11.78158474 -4.9375 8.1875 C-4.57527344 7.21167969 -4.21304688 6.23585938 -3.83984375 5.23046875 C-3.42412109 4.12638672 -3.42412109 4.12638672 -3 3 C-2.34 3 -1.68 3 -1 3 C-0.67 2.01 -0.34 1.02 0 0 Z " fill="#4E4E4E" transform="translate(797,672)"/>
<path d="M0 0 C2.55263088 2.274694 3.84144815 4.43202693 5.1875 7.5625 C5.53167969 8.34753906 5.87585938 9.13257813 6.23046875 9.94140625 C7 12 7 12 7 14 C5 14 5 14 3.5 12.9375 C0.5130993 9.07941993 0 4.7635961 0 0 Z " fill="#5F5F5F" transform="translate(576,627)"/>
<path d="M0 0 C1.0326802 2.78823655 1.04509293 3.8677274 0.0625 6.75 C-0.288125 7.4925 -0.63875 8.235 -1 9 C-1.66 9 -2.32 9 -3 9 C-3 10.32 -3 11.64 -3 13 C-3.99 13.33 -4.98 13.66 -6 14 C-4.45941767 8.98491285 -2.97068161 4.3852919 0 0 Z " fill="#555555" transform="translate(749,629)"/>
<path d="M0 0 C1.64680455 4.04215662 0.24159458 6.77818603 -1.3125 10.6875 C-1.98732422 12.42580078 -1.98732422 12.42580078 -2.67578125 14.19921875 C-4 17 -4 17 -6 18 C-4.41039668 11.76559832 -2.72399099 5.83712355 0 0 Z " fill="#5F5F5F" transform="translate(756,611)"/>
<path d="M0 0 C1.28617345 4.20088308 0.59783129 6.89129098 -1 11 C-3.125 12.4375 -3.125 12.4375 -5 13 C-4.39254603 8.14036821 -2.27241033 4.2594482 0 0 Z " fill="#535353" transform="translate(399,538)"/>
<path d="M0 0 C3.32085466 2.68831091 4.42003908 6.12191412 6 10 C6.33 10.33 6.66 10.66 7 11 C7.04080783 12.99958364 7.04254356 15.00045254 7 17 C4.78046036 14.78046036 4.08175246 13.08946346 2.9375 10.1875 C2.59589844 9.33542969 2.25429688 8.48335937 1.90234375 7.60546875 C1.02695791 5.07783949 0.45836517 2.63205566 0 0 Z " fill="#444444" transform="translate(664,699)"/>
<path d="M0 0 C0.33 0 0.66 0 1 0 C1.29359745 3.0534135 1.4451258 5.95743422 1 9 C-1.5 11.5625 -1.5 11.5625 -4 13 C-3.40895235 8.15340923 -2.02055843 4.39251833 0 0 Z " fill="#525252" transform="translate(368,608)"/>
<path d="M0 0 C2.24956302 2.24956302 3.00510965 4.06323263 4.1875 7 C4.55230469 7.886875 4.91710937 8.77375 5.29296875 9.6875 C6 12 6 12 5 14 C2.21366246 12.60683123 2.06507306 10.84019484 1 8 C0.67 7.67 0.34 7.34 0 7 C-0.04092937 4.66702567 -0.04241723 2.33294775 0 0 Z " fill="#5E5E5E" transform="translate(600,681)"/>
<path d="M0 0 C4.17310541 4.17310541 5.51977443 10.42068825 7 16 C1.76685011 11.26524534 0.57687424 6.80711608 0 0 Z " fill="#636363" transform="translate(583,642)"/>
<path d="M0 0 C1.35281097 3.07457039 0.92902928 4.19516948 -0.25 7.4375 C-1.70738283 10.40431506 -3.22692646 13.21374158 -5 16 C-5.33 15.34 -5.66 14.68 -6 14 C-5.29296875 12.265625 -5.29296875 12.265625 -4.1875 10.25 C-2.42425709 6.90654977 -1.08946878 3.63156259 0 0 Z " fill="#6E6E6E" transform="translate(380,580)"/>
<path d="M0 0 C0.33 0 0.66 0 1 0 C0.88541307 1.43836751 0.75790884 2.87570966 0.625 4.3125 C0.55539062 5.11300781 0.48578125 5.91351562 0.4140625 6.73828125 C0 9 0 9 -2 12 C-2.66 12 -3.32 12 -4 12 C-3.45660208 7.43545749 -2.20536179 4.0271824 0 0 Z " fill="#4A4A4A" transform="translate(393,551)"/>
<path d="M0 0 C1.32 0.33 2.64 0.66 4 1 C6.125 8.5 6.125 8.5 5 13 C3.35 8.71 1.7 4.42 0 0 Z " fill="#303030" transform="translate(587,522)"/>
<path d="M0 0 C0.66 0 1.32 0 2 0 C2 1.32 2 2.64 2 4 C2.66 4 3.32 4 4 4 C7.125 10.625 7.125 10.625 6 14 C4.99515796 12.04414675 3.99626195 10.08523763 3 8.125 C2.1646875 6.48917969 2.1646875 6.48917969 1.3125 4.8203125 C0 2 0 2 0 0 Z " fill="#626262" transform="translate(645,657)"/>
<path d="M0 0 C1.06528748 2.73019786 1.07998186 3.79298812 0.00390625 6.578125 C-0.47175781 7.45984375 -0.94742188 8.3415625 -1.4375 9.25 C-1.91058594 10.14203125 -2.38367188 11.0340625 -2.87109375 11.953125 C-3.24363281 12.62859375 -3.61617187 13.3040625 -4 14 C-4.9113287 11.47942631 -5.08517871 10.26674385 -4.2578125 7.67578125 C-3.88398437 6.89589844 -3.51015625 6.11601563 -3.125 5.3125 C-2.75632812 4.52488281 -2.38765625 3.73726562 -2.0078125 2.92578125 C-1 1 -1 1 0 0 Z " fill="#3F3F3F" transform="translate(827,601)"/>
<path d="M0 0 C0.33 0 0.66 0 1 0 C1.5497272 5.63470383 -0.04952165 8.38987758 -3 13 C-3.66 13 -4.32 13 -5 13 C-4.731875 12.34 -4.46375 11.68 -4.1875 11 C-2.74294953 7.35060933 -1.37128822 3.67754567 0 0 Z " fill="#616161" transform="translate(387,564)"/>
<path d="M0 0 C0.33 0 0.66 0 1 0 C1.5497272 5.63470383 -0.04952165 8.38987758 -3 13 C-3.66 13 -4.32 13 -5 13 C-4.731875 12.34 -4.46375 11.68 -4.1875 11 C-2.74294953 7.35060933 -1.37128822 3.67754567 0 0 Z " fill="#595959" transform="translate(787,540)"/>
<path d="M0 0 C1.60080151 4.00200378 0.29279692 7.04556236 -1 11 C-2.32 11.33 -3.64 11.66 -5 12 C-4.54738642 10.56068883 -4.08767021 9.12361001 -3.625 7.6875 C-3.24214844 6.48673828 -3.24214844 6.48673828 -2.8515625 5.26171875 C-2 3 -2 3 0 0 Z " fill="#515151" transform="translate(423,482)"/>
<path d="M0 0 C0.6875 1.6875 0.6875 1.6875 1 4 C-0.3125 6.75 -0.3125 6.75 -2 9 C-2.66 9 -3.32 9 -4 9 C-4.33 9.66 -4.66 10.32 -5 11 C-4.625 8.0625 -4.625 8.0625 -4 5 C-3.34 4.67 -2.68 4.34 -2 4 C-0.86649466 1.98330173 -0.86649466 1.98330173 0 0 Z " fill="#3B3B3B" transform="translate(382,729)"/>
<path d="M0 0 C2.22825644 2.22825644 2.69239369 3.65761628 3.625 6.625 C4.01558594 7.85089844 4.01558594 7.85089844 4.4140625 9.1015625 C4.60742188 9.72804688 4.80078125 10.35453125 5 11 C1.125 9.25 1.125 9.25 0 7 C-0.04022391 4.6670134 -0.04320247 2.33293334 0 0 Z " fill="#5C5C5C" transform="translate(606,695)"/>
<path d="M0 0 C0.88336837 2.4667645 1.1312406 3.63859372 0.22265625 6.140625 C-0.16019531 6.83671875 -0.54304688 7.5328125 -0.9375 8.25 C-1.31777344 8.95640625 -1.69804687 9.6628125 -2.08984375 10.390625 C-2.39019531 10.92171875 -2.69054687 11.4528125 -3 12 C-3.66 12 -4.32 12 -5 12 C-4.54738642 10.56068883 -4.08767021 9.12361001 -3.625 7.6875 C-3.24214844 6.48673828 -3.24214844 6.48673828 -2.8515625 5.26171875 C-2 3 -2 3 0 0 Z " fill="#6D6D6D" transform="translate(363,621)"/>
<path d="M0 0 C1 3 1 3 -0.4375 6.1875 C-1.2109375 7.5796875 -1.2109375 7.5796875 -2 9 C-2.66 9 -3.32 9 -4 9 C-4.33 9.66 -4.66 10.32 -5 11 C-4.46884894 6.48521602 -2.63379708 3.65333143 0 0 Z " fill="#323232" transform="translate(821,615)"/>
<path d="M0 0 C2.24956302 2.24956302 3.00510965 4.06323263 4.1875 7 C4.55230469 7.886875 4.91710937 8.77375 5.29296875 9.6875 C6 12 6 12 5 14 C1.31903365 9.25036599 0.41330414 5.99291003 0 0 Z " fill="#696969" transform="translate(678,568)"/>
<path d="M0 0 C1.13508688 3.3515741 0.87309359 5.35675676 -0.25 8.6875 C-0.50265625 9.47511719 -0.7553125 10.26273438 -1.015625 11.07421875 C-2 13 -2 13 -5 14 C-3.45730076 9.27934033 -1.92205381 4.58335908 0 0 Z " fill="#737373" transform="translate(781,553)"/>
<path d="M0 0 C0.33 0.66 0.66 1.32 1 2 C0.06553465 4.03144641 -0.93224776 6.03533587 -2 8 C-2.66 8 -3.32 8 -4 8 C-4.33 8.66 -4.66 9.32 -5 10 C-5.3125 7.8125 -5.3125 7.8125 -5 5 C-2.5 2.1875 -2.5 2.1875 0 0 Z " fill="#343434" transform="translate(848,554)"/>
<path d="M0 0 C2.22825644 2.22825644 2.69239369 3.65761628 3.625 6.625 C4.01558594 7.85089844 4.01558594 7.85089844 4.4140625 9.1015625 C4.60742188 9.72804688 4.80078125 10.35453125 5 11 C2 10 2 10 0 7 C-0.07905064 4.66800612 -0.08798769 2.33167378 0 0 Z " fill="#525252" transform="translate(561,591)"/>
<path d="M0 0 C0.66 0.33 1.32 0.66 2 1 C0.35 4.63 -1.3 8.26 -3 12 C-3.33 12 -3.66 12 -4 12 C-4 9.69 -4 7.38 -4 5 C-3.01 5 -2.02 5 -1 5 C-0.67 3.35 -0.34 1.7 0 0 Z " fill="#383838" transform="translate(832,589)"/>
<path d="M0 0 C0.33 0.66 0.66 1.32 1 2 C1.66 2 2.32 2 3 2 C5.42857143 9.42857143 5.42857143 9.42857143 4 13 C3.67 10.69 3.34 8.38 3 6 C2.34 6 1.68 6 1 6 C0.67 4.02 0.34 2.04 0 0 Z " fill="#222222" transform="translate(674,563)"/>
<path d="M0 0 C1.21386936 3.64160808 0.6674695 4.33165469 -0.9375 7.6875 C-1.31777344 8.49574219 -1.69804688 9.30398438 -2.08984375 10.13671875 C-2.39019531 10.75160156 -2.69054687 11.36648438 -3 12 C-3.33 12 -3.66 12 -4 12 C-3.28571429 3.42857143 -3.28571429 3.42857143 0 0 Z " fill="#454545" transform="translate(844,562)"/>
<path d="M0 0 C0.33 0 0.66 0 1 0 C1.3227506 4.62609198 0.84450614 7.28026121 -2 11 C-2.66 11 -3.32 11 -4 11 C-3.52269162 9.5410574 -3.04308958 8.08286504 -2.5625 6.625 C-2.29566406 5.81289063 -2.02882813 5.00078125 -1.75390625 4.1640625 C-1 2 -1 2 0 0 Z " fill="#696969" transform="translate(799,512)"/>
<path d="M0 0 C1 2 1 2 0.44140625 3.9453125 C0.15136719 4.66460937 -0.13867188 5.38390625 -0.4375 6.125 C-0.72496094 6.84945313 -1.01242187 7.57390625 -1.30859375 8.3203125 C-1.53675781 8.87460937 -1.76492188 9.42890625 -2 10 C-2.66 10 -3.32 10 -4 10 C-4.33 10.66 -4.66 11.32 -5 12 C-5 10.68 -5 9.36 -5 8 C-4.34 7.67 -3.68 7.34 -3 7 C-1.94647157 4.69034152 -0.94280904 2.3570226 0 0 Z " fill="#1C1C1C" transform="translate(429,472)"/>
<path d="M0 0 C2.1875 -0.375 2.1875 -0.375 5 0 C7.08832653 1.82869674 8.38336791 3.69052559 10 6 C10 6.66 10 7.32 10 8 C9.01 8 8.02 8 7 8 C7 6.68 7 5.36 7 4 C6.34 4 5.68 4 5 4 C4.67 3.34 4.34 2.68 4 2 C1.98330173 0.86649466 1.98330173 0.86649466 0 0 Z " fill="#3D3D3D" transform="translate(499,462)"/>
<path d="M0 0 C0.33 0 0.66 0 1 0 C1.33 2.97 1.66 5.94 2 9 C0.68 9.33 -0.64 9.66 -2 10 C-2.22036864 6.14354879 -1.60355101 3.50776784 0 0 Z " fill="#555555" transform="translate(306,751)"/>
<path d="M0 0 C0.99 0 1.98 0 3 0 C1.125 4.75 1.125 4.75 0 7 C-0.99 7 -1.98 7 -3 7 C-1.125 2.25 -1.125 2.25 0 0 Z " fill="#323232" transform="translate(440,593)"/>
<path d="M0 0 C1.97566188 1.97566188 2.89579072 3.52337094 4.125 6 C4.47820313 6.70125 4.83140625 7.4025 5.1953125 8.125 C6 10 6 10 6 12 C3 11 3 11 1.3125 7.6875 C0 4 0 4 0 0 Z " fill="#1F1F1F" transform="translate(521,502)"/>
<path d="M0 0 C0.66 0 1.32 0 2 0 C5.10096154 5.45769231 5.10096154 5.45769231 4.58984375 8.203125 C4.39519531 8.79609375 4.20054687 9.3890625 4 10 C3.32845067 8.71086513 2.66291141 7.41859796 2 6.125 C1.62875 5.40570312 1.2575 4.68640625 0.875 3.9453125 C0 2 0 2 0 0 Z " fill="#4E4E4E" transform="translate(552,737)"/>
<path d="M0 0 C0.6875 1.6875 0.6875 1.6875 1 4 C-0.25 6.6875 -0.25 6.6875 -2 9 C-2.99 9.33 -3.98 9.66 -5 10 C-5 9.34 -5 8.68 -5 8 C-4.34 8 -3.68 8 -3 8 C-3 7.01 -3 6.02 -3 5 C-2.34 5 -1.68 5 -1 5 C-0.67 3.35 -0.34 1.7 0 0 Z " fill="#202020" transform="translate(321,722)"/>
<path d="M0 0 C1.32 0.33 2.64 0.66 4 1 C4.33 3.97 4.66 6.94 5 10 C3 9 3 9 2.1484375 6.93359375 C1.89320313 6.10988281 1.63796875 5.28617188 1.375 4.4375 C1.11460937 3.61121094 0.85421875 2.78492188 0.5859375 1.93359375 C0.39257812 1.29550781 0.19921875 0.65742187 0 0 Z " fill="#393939" transform="translate(671,717)"/>
<path d="M0 0 C2 1 2 1 3.1875 4.3125 C3.90649268 7.57562063 4.20286847 8.99282882 3 12 C-0.42857143 4.71428571 -0.42857143 4.71428571 0 0 Z " fill="#323232" transform="translate(535,693)"/>
<path d="M0 0 C2.22825644 2.22825644 2.69239369 3.65761628 3.625 6.625 C4.01558594 7.85089844 4.01558594 7.85089844 4.4140625 9.1015625 C4.60742188 9.72804688 4.80078125 10.35453125 5 11 C4.01 10.67 3.02 10.34 2 10 C0.47839986 6.3962102 0 3.94779314 0 0 Z " fill="#6D6D6D" transform="translate(700,620)"/>
<path d="M0 0 C2.22825644 2.22825644 2.69239369 3.65761628 3.625 6.625 C4.01558594 7.85089844 4.01558594 7.85089844 4.4140625 9.1015625 C4.60742188 9.72804688 4.80078125 10.35453125 5 11 C4.01 10.67 3.02 10.34 2 10 C0.47839986 6.3962102 0 3.94779314 0 0 Z " fill="#646464" transform="translate(556,579)"/>
<path d="M0 0 C2.22825644 2.22825644 2.69239369 3.65761628 3.625 6.625 C4.01558594 7.85089844 4.01558594 7.85089844 4.4140625 9.1015625 C4.60742188 9.72804688 4.80078125 10.35453125 5 11 C4.34 11 3.68 11 3 11 C3 10.34 3 9.68 3 9 C2.34 9 1.68 9 1 9 C0.67 6.03 0.34 3.06 0 0 Z " fill="#5F5F5F" transform="translate(672,554)"/>
<path d="M0 0 C1 2 1 2 0.25 5.4375 C-0.8627673 8.60888681 -1.41725594 10.00424323 -4 12 C-4 10.35 -4 8.7 -4 7 C-3.01 6.67 -2.02 6.34 -1 6 C-1.020625 5.195625 -1.04125 4.39125 -1.0625 3.5625 C-1 1 -1 1 0 0 Z " fill="#1F1F1F" transform="translate(886,462)"/>
<path d="M0 0 C0.66 0 1.32 0 2 0 C0.14285714 7.57142857 0.14285714 7.57142857 -3 10 C-2.39009109 6.44219804 -1.4216319 3.3171411 0 0 Z " fill="#272727" transform="translate(798,665)"/>
<path d="M0 0 C2.6855594 2.6855594 3.06049974 5.37621328 4 9 C2.68 8.34 1.36 7.68 0 7 C0 4.69 0 2.38 0 0 Z " fill="#595959" transform="translate(705,632)"/>
<path d="M0 0 C0.66 0 1.32 0 2 0 C1.55090939 1.48199902 1.09043436 2.96055236 0.625 4.4375 C0.36976563 5.26121094 0.11453125 6.08492187 -0.1484375 6.93359375 C-1 9 -1 9 -3 10 C-2.25 3.375 -2.25 3.375 0 0 Z " fill="#585858" transform="translate(865,513)"/>
<path d="M0 0 C0.66 0 1.32 0 2 0 C1.67 1.65 1.34 3.3 1 5 C-0.32 5.33 -1.64 5.66 -3 6 C-1.125 1.125 -1.125 1.125 0 0 Z " fill="#252525" transform="translate(370,754)"/>
<path d="M0 0 C0.66 0 1.32 0 2 0 C1.67 1.98 1.34 3.96 1 6 C0.01 6 -0.98 6 -2 6 C-2.33 6.99 -2.66 7.98 -3 9 C-3 7.35 -3 5.7 -3 4 C-2.34 3.67 -1.68 3.34 -1 3 C-0.67 2.01 -0.34 1.02 0 0 Z " fill="#2B2B2B" transform="translate(401,683)"/>
<path d="M0 0 C0.62109375 1.796875 0.62109375 1.796875 1 4 C-0.9375 7.25 -0.9375 7.25 -3 10 C-3.33 9.34 -3.66 8.68 -4 8 C-3.22265625 6.0546875 -3.22265625 6.0546875 -2.0625 3.875 C-1.49208984 2.78832031 -1.49208984 2.78832031 -0.91015625 1.6796875 C-0.60980469 1.12539063 -0.30945313 0.57109375 0 0 Z " fill="#6F6F6F" transform="translate(351,649)"/>
<path d="M0 0 C3.44216672 2.6598561 3.99504674 5.90288286 5 10 C4.34 10 3.68 10 3 10 C0.96564469 6.27034861 0 4.33094958 0 0 Z " fill="#6A6A6A" transform="translate(688,593)"/>
<path d="M0 0 C2.27795022 2.27795022 3.05219877 3.93787293 4 7 C3.625 9.3125 3.625 9.3125 3 11 C0 4.5 0 4.5 0 0 Z " fill="#676767" transform="translate(684,582)"/>
<path d="M0 0 C1.32 0.33 2.64 0.66 4 1 C4.33 3.31 4.66 5.62 5 8 C4.67 7.01 4.34 6.02 4 5 C3.34 5 2.68 5 2 5 C1.34 3.35 0.68 1.7 0 0 Z " fill="#212121" transform="translate(468,538)"/>
<path d="M0 0 C0.66 0.33 1.32 0.66 2 1 C0.515 4.465 0.515 4.465 -1 8 C-1.66 8 -2.32 8 -3 8 C-2.37240135 5.07120629 -1.41377341 2.63904371 0 0 Z " fill="#3B3B3B" transform="translate(868,505)"/>
<path d="M0 0 C4 4.5 4 4.5 4 9 C3.34 9 2.68 9 2 9 C0.50178941 5.62902617 0 3.79557881 0 0 Z " fill="#202020" transform="translate(533,530)"/>
<path d="M0 0 C-0.28875 0.556875 -0.5775 1.11375 -0.875 1.6875 C-2.0413253 4.08494645 -3.0339881 6.51596939 -4 9 C-5.45169732 6.09660535 -4.72348441 4.09125158 -4 1 C-2 0 -2 0 0 0 Z " fill="#161616" transform="translate(422,493)"/>
</svg>
