<svg version="1.1" id="Layer_1" xmlns="http://www.w3.org/2000/svg" xmlns:xlink="http://www.w3.org/1999/xlink" x="0px" y="0px"
	 width="100%" viewBox="0 0 1024 1008" enable-background="new 0 0 1024 1008" xml:space="preserve">
<path fill="#000000" opacity="1.000000" stroke="none" 
	d="
M719.434082,493.364746 
	C697.631165,543.862793 675.920471,593.987122 654.383911,644.186218 
	C652.747925,647.999512 650.746643,649.473389 646.589294,649.424377 
	C629.594299,649.224121 612.592896,649.182007 595.599792,649.451538 
	C590.707764,649.529114 588.228577,647.933655 586.264343,643.358398 
	C557.292786,575.875854 528.130981,508.475006 499.003784,441.059326 
	C492.729309,426.536865 486.372375,412.049927 480.138245,397.510284 
	C477.803406,392.064789 478.504883,391.009338 484.352570,390.991119 
	C501.349792,390.938202 518.347900,391.042847 535.344238,390.909637 
	C539.387878,390.877960 541.718994,392.317810 543.322693,396.135925 
	C561.960388,440.508820 580.734558,484.824402 599.457642,529.161438 
	C606.001526,544.657532 612.494324,560.175171 619.044250,575.668640 
	C619.603821,576.992310 619.967651,578.569824 621.795837,579.068237 
	C624.250671,577.791565 624.645569,575.119568 625.601074,572.922668 
	C646.525391,524.814819 667.387878,476.680084 688.273254,428.555267 
	C692.914368,417.861176 697.734558,407.242065 702.190125,396.471649 
	C703.840271,392.482819 706.313782,390.913666 710.545593,390.949524 
	C726.208679,391.082214 741.873535,391.002777 757.537720,391.015411 
	C759.027283,391.016632 760.556885,390.928925 762.718262,392.739136 
	C748.426453,425.951355 733.998230,459.480560 719.434082,493.364746 
z"/>
<path fill="#000000" opacity="1.000000" stroke="none" 
	d="
M516.111572,585.986816 
	C524.858154,606.202637 533.441589,626.074219 542.038452,645.940063 
	C544.327209,651.229065 543.848999,652.148132 538.214722,652.168518 
	C520.718079,652.231750 503.220856,652.146729 485.724670,652.251587 
	C482.219086,652.272583 480.250458,650.879150 478.912231,647.669189 
	C465.199036,614.775208 451.437592,581.901184 437.600494,549.059143 
	C426.285370,522.202942 414.853088,495.396179 403.457367,468.574036 
	C402.817078,467.066925 402.207672,465.475891 400.498016,464.837219 
	C398.368286,465.546875 397.859711,467.425079 397.150604,469.057678 
	C377.978088,513.200562 358.832611,557.355164 339.677765,601.505737 
	C332.983398,616.935852 326.206299,632.330750 319.634155,647.812622 
	C318.327484,650.890686 316.394043,652.210754 313.192963,652.204773 
	C296.862732,652.174133 280.532440,652.175232 264.202148,652.181580 
	C260.193817,652.183105 259.285797,650.648560 260.921783,646.875793 
	C284.243896,593.094116 307.489197,539.279114 330.737152,485.465240 
	C343.021454,457.029785 355.365295,428.619293 367.449554,400.098938 
	C369.364014,395.580536 371.899323,393.714935 376.803436,393.777496 
	C393.464417,393.990112 410.130920,393.982025 426.792450,393.798065 
	C431.247101,393.748901 433.707977,395.264709 435.502319,399.447601 
	C454.935333,444.747772 474.534393,489.976746 494.098877,535.220520 
	C501.369202,552.033508 508.667816,568.834167 516.111572,585.986816 
z"/>
</svg>